<svg id="Layer_1" data-name="Layer 1" xmlns="http://www.w3.org/2000/svg" viewBox="0 0 482.51 257.44">
  <title>arrow</title>
  <g>
    <g>
      <path d="M1092.51,471.87c-.37-.56-1.63-1.11-1.82-.29l1.69,1.67Z" transform="translate(-616.42 -459.43)" style="fill: #202020"/>
      <path d="M1086,474.27a5.86,5.86,0,0,0,3.71,3.94c-1.4-2-.49-1.68-2.23-3.92.19-.82,1.37-.81,2-.25-.36-.55,1.09-.81.07-1.92-2.09,0-2.83,1-2.29,3C1086.69,475.11,1086.33,474.55,1086,474.27Z" transform="translate(-616.42 -459.43)" style="fill: #202020"/>
      <path d="M1036.4,534.2l.54-.18A.88.88,0,0,0,1036.4,534.2Z" transform="translate(-616.42 -459.43)" style="fill: #202020"/>
      <path d="M1001.17,566.7a.57.57,0,0,0,.08-.73C1001.09,566.31,1001,566.61,1001.17,566.7Z" transform="translate(-616.42 -459.43)" style="fill: #202020"/>
      <path d="M993.3,570c.18-.06.32-.12.47-.19C993.49,569.81,993.28,569.84,993.3,570Z" transform="translate(-616.42 -459.43)" style="fill: #202020"/>
      <path d="M1036.4,534.2l-1.4.46C1035.5,535.23,1035.86,534.55,1036.4,534.2Z" transform="translate(-616.42 -459.43)" style="fill: #202020"/>
      <path d="M1085,486.44a1.7,1.7,0,0,0-.12-.93,4.54,4.54,0,0,1-.16.69Z" transform="translate(-616.42 -459.43)" style="fill: #202020"/>
      <path d="M1048.86,517l.24-.3a7.6,7.6,0,0,0-.53-.85Z" transform="translate(-616.42 -459.43)" style="fill: #202020"/>
      <path d="M1058.57,504.13c-.29.24,1.2,1.53,1.8,2.16-.52-.66-.66-1.11-.59-1.45A6.24,6.24,0,0,0,1058.57,504.13Z" transform="translate(-616.42 -459.43)" style="fill: #202020"/>
      <path d="M1076.26,485.15l0-.53C1076.29,484.77,1076.24,485,1076.26,485.15Z" transform="translate(-616.42 -459.43)" style="fill: #202020"/>
      <path d="M1041,525.58a2.68,2.68,0,0,0-.62-.35A1.86,1.86,0,0,0,1041,525.58Z" transform="translate(-616.42 -459.43)" style="fill: #202020"/>
      <path d="M636,716c0-.14,0-.23,0-.35C635.89,715.87,635.87,716,636,716Z" transform="translate(-616.42 -459.43)" style="fill: #202020"/>
      <path d="M616.5,707l.26-.11c0-.37.05-.74,0-1.1Z" transform="translate(-616.42 -459.43)" style="fill: #202020"/>
      <path d="M980.18,577.41h.07C980.42,577,980.27,577.15,980.18,577.41Z" transform="translate(-616.42 -459.43)" style="fill: #202020"/>
      <path d="M863,646.61c2.12,1-1.47,3,1.45,4C864,649.94,865.27,646.93,863,646.61Z" transform="translate(-616.42 -459.43)" style="fill: #202020"/>
      <path d="M1084.51,486.66a3.6,3.6,0,0,1-.36.58A1,1,0,0,0,1084.51,486.66Z" transform="translate(-616.42 -459.43)" style="fill: #202020"/>
      <path d="M864.49,650.57h0l.3.08Z" transform="translate(-616.42 -459.43)" style="fill: #202020"/>
      <path d="M953.17,598.37a2.78,2.78,0,0,0,.77.52A1.85,1.85,0,0,0,953.17,598.37Z" transform="translate(-616.42 -459.43)" style="fill: #202020"/>
      <path d="M975.65,585.88,975,586A1.34,1.34,0,0,0,975.65,585.88Z" transform="translate(-616.42 -459.43)" style="fill: #202020"/>
      <path d="M943.53,607.93c-.37.06-.61-.11-.87.37a1,1,0,0,0,.25.13C942.91,608.11,943,607.88,943.53,607.93Z" transform="translate(-616.42 -459.43)" style="fill: #202020"/>
      <path d="M931.69,615.15a3.84,3.84,0,0,0,.42.21l.33-.31Z" transform="translate(-616.42 -459.43)" style="fill: #202020"/>
      <path d="M678.92,711.13a7.05,7.05,0,0,1-.86-1.67C678.44,710.82,676.43,711.57,678.92,711.13Z" transform="translate(-616.42 -459.43)" style="fill: #202020"/>
      <path d="M1084,485.85c.37.34.51.57.48.81a3.33,3.33,0,0,0,.17-.45A1.25,1.25,0,0,0,1084,485.85Z" transform="translate(-616.42 -459.43)" style="fill: #202020"/>
      <path d="M951.3,621.39c-.69.33-1.39.63-2.09.95A7.74,7.74,0,0,0,951.3,621.39Z" transform="translate(-616.42 -459.43)" style="fill: #202020"/>
      <path d="M778.72,691.86l-.44.36A.45.45,0,0,0,778.72,691.86Z" transform="translate(-616.42 -459.43)" style="fill: #202020"/>
      <path d="M943.61,626.09a3.59,3.59,0,0,0-1.79-.5,1.8,1.8,0,0,0,0,.57Z" transform="translate(-616.42 -459.43)" style="fill: #202020"/>
      <path d="M678,709.44v0Z" transform="translate(-616.42 -459.43)" style="fill: #202020"/>
      <path d="M663.79,715.72c2.15-.16.75-2.62,1.05-4.14,2.47-1,1.38,1.77,2.38,3,1.53-.85,2.49-3.34,3.68-3.37.14.41.38.54.17,1.1,1.45-2.23,5-.68,6.63-3.47a1.78,1.78,0,0,1,.33.61,12,12,0,0,1-.73-3.49c.94-.16,1.56-1.84,2.12-.21-.59,0-.55.71-.76,1.26l.91-.85c1.2,2.3-1.26,1-1,2.79,1.85-1,3.86-3.31,5.43-2.81.62,2.32-3.38,1.23-1.12,3.08l-2.42-.61c2.23,3.5-1.44-.08.68,3.69,3.14.3,3.26-1.62,6.38-1.35.51-1.4-.48-1.91,0-3.31,4-2.93,4.21,5.47,6.94,1.88.6-1.69.48-4.71,3-3.46l-.38,2.77c3-.16,1.11-4.07,4.44-2.75-.39,1.13-2.17,1.24-1.68,1.48,2.31,1.79,1.18-1.72,2.7-2l.68,2.3c3.07-.84,6.23-3.12,9.6-4.11-.07.73-.54,1.56.39,2.15,4.15-1.92,9.33-1.31,13.79-.72l1.22-2.32c.38,0,.86.78.53,1.25,1.78.46-.16-1.3.48-2.23.9-.31,1.45.93,1,1.65,2.55-2.29,7.45-5.26,10.91-3.76l-.47.72c2.53.32,1.79-4.68,4.36-3.25l-.34.44c5.28-.22,10.48-3.28,15-1.18.06-3.05,5.33.11,4.7-4,3.36,1.28,2.71,2.2,7.12,2.53,1.14-.09,1-2.9,2.23-3.65l.56,2.08,1.26-2.67,1.61,2.25,1.12-.86a1.69,1.69,0,0,1-1.39-1.28c1.71-1.46,5.16.21,5.5,1.26,1.4-1,2.78-2,4.16-3,.13.87-.57,1.37-1,2.07,1.9-2.8,1,2.07,2.79-.5-.43-.39-.18-1.28-.24-1.72,1.47.94,4.06.27,5.81-.82l0,1.54c3.53-.64,7-2.74,10.88-3.9-1.57-.24-2-2.81-.95-3.39l1.11,2c.32-1.57-1.42-.47-.43-2.57,1.5-.18,1.71,2.19,1.1,3.15l1.51-1.29c.3.62,0,1.09.14,2,.3-1.57,3.68,1.27,4-1.39l.3.62c3.83-1.19,5.33-2.5,8.4-3.6-.55-1.9.8-1.86,1.22-3.68,2.46-.16,5.47.45,8.16-.63,1.6-1.57,0-1.77.5-3.16.73,1.65,3.39.53,2.4,2.25a28,28,0,0,0,7.69-4.65c-.7-.53-1.31-.65-1.26-1.32.65-.54,2,.1,2.14.94l-.13.25c1.84-2.12,4.94-1.88,7.9-1.72s5.75.16,6.9-2.28l-.14.25,3.07-3.29c1.85-.39-.55,1.66,1.15,2.19,3-4.4,6.58-2.22,9.17-5.43,2.32,1.93,4.57.83,6.83-.5s4.54-2.92,7-2.17l-.71-1c.39-1.52,1.37.16,2.14.13-.49-.84-1.42-.58-1.15-1.45,3.45-2.4,7.54-3.7,11.74-4.87,2.11-.57,4.26-1.07,6.4-1.6s4.23-1.14,6.27-1.84c2.94-1.1-1.32-6.53,3.51-5.65l.06,2.56c4.29-5.35,11.44-5.85,15.66-10.93-.06.64.27,1.25-.26,1.54,2,.84,4.25-2.25,3.59-3.45.91-.33.8,1,1.66,1.29,1.62.21,1.76-3.5,3.19-2.4.24.18,0,.66-.19.89.33-1.13,3.53-1.81,1.85-3.07,2.46-.37,3.38-2.93,5.53-2.92-.1-2.48,3.91-1.16,2.64-4,1.51,2.79,4.79.07,5.24-2,.1,1.07,1.59.16,1.82,1.59,1.38-.94,2.35-2.26,1.23-3.48,4.63,1.53,3.51-5.88,7.62-2.74a98.11,98.11,0,0,1,9.51-10.82c.84,1.34-.11,2.12-1,2.88s-1.8,1.48-.79,2.79c2.78-3.43,3.14-7.11,7-8.88,1.13-.27.3,1.47.31,2.12,2.69-3.46,6.76-4.57,8.73-8.19.17.24,0,.74-.12,1.16.53-.52,1.66-.66.72-1.75l-.34.74c-2.19-1-.29-5.22-.86-6.16.75,2,1.64,1.66,2.54,1.48s1.79-.24,2.6,2.43a2,2,0,0,0-.4-2.12c.73-.22,1.26.08,1.35,1.39,1.6-2.26-.08-2.87,1.81-4.33.42.55.21,1.06.52,1.86.12-1.82.22-3.63,2.17-4.42.17.4.69.68.21,1,2.62-2.29,2.28-6.53,6-7.92,1.08,3,1.63-.06,3.47,1.81l1.07-1.91-1.45-.44c1.42-1.1,1.36-3.59,3.07-4l-.29,1.69,2.19-2.59-2.07.5c.47-2.21-2.31-2.37-.06-3.38-.18.52,1.35-1.14,3.07-.6a0,0,0,0,0,0,0c.11-1.2.2-2.45,1.62-2.84.82.4,1.72,2.33,2.26,2.6-.79-2.17,2.68-3.28,1.92-5.74a3.67,3.67,0,0,0,1.29,1.8l-.67-1.8c1-.14,1.27,0,1.91.87,2-1.46-2.83-1.89.3-2.85-.07.26.19.38,0,.91a9.79,9.79,0,0,0,3-3.06,8.58,8.58,0,0,1,2.9-2.94c2.41,1.32-1.25,2.13.95,3.08,2.48-3.13,3.64-7.92,6.71-10.21l-.7.31c-2.29-3,3.27-.75,3.35-3.36-.13.53,1.05,1.87.85,1.5a8,8,0,0,0,2.59-3.25c.72-1.38,1.38-3,2.26-4.91l.37,1c1.66-.56,3.08-2.66,4.51-3.6-.38-1,.37-1.6-1-2.1a5.35,5.35,0,0,0,3.94-1.51,9.75,9.75,0,0,0,1.77-3.24c.9-2.35,1.65-4.69,4.85-5-.34.42-.2,1.52.08,1.19.61-1.17,1.24-2.33,1.81-3.53-1.44-.79-1.07-.23-2.55-.4a3.18,3.18,0,0,1,.27-3c-.25,2,2,1.64,3.19,1.62-.46-.22-.73-.76-1.16-1,3.49.25-2.32-2.31.9-3.23l.57.64c.3-1.07,0-2.51.9-3.21,1.75.8,0,1.39,1.16,2.41.89-1.29-.86-4.58,1.48-4.53,0,.84-.59,1.58-.59,2.42,2.68.15,2.38-.31,3.34-1l-.11.06L1066,512l-.88.18c-2.7-4.52,1.69-3.72.7-7.72.9,3.84,1.15,1.38,2.73,2.8.88-.18,2-.61,2.33,0-.64-2,2.37-.85,1.35-3.78.6.34.82-1.05,2.05.18.5-1.64-1.19-.38-1.8-1-.46-3.38,5.7-3.18,5.15-7.95.68-3.28-1-5.08-.34-8.07,1.44-.2,1.64,2,1.64,2a3.61,3.61,0,0,0,2.34-3.48c.34.57.93.59,1.82.64.5-1.09-1.65-2,0-2.76a10.42,10.42,0,0,1,1.66,2.47c.24-1.51-.06-3.34.15-4.9,1.21.31,1.07,1.7,1.46,2.56.4-1.67,1.29-4.16,0-5.58l-1.11.53c.23-.55,1.53.6,1.6,1.15.52,2-1.6,1.36-2.22,1.06l.16-1.1c-2-.62-2.37.33-2.43,1.65s.13,3-.54,3.76l-2-2.3.87,3.07c-.88,0-2.41-.68-2.22-1.76-2,.43.15,1.65-1.88,1.82-.28,0-.37-.15-.39-.32l-.06,1.67c-.36-.57-1.84-.94-1-1.44-2.8,1.19-.46,4.67-2.82,4.23l0-.28c-1.23,3.46,1.57,1.48,2.09,5.1l-5.36-1.54,1.55,1.51c-.27.26-.82.76-1.45.15.41,2,.89.34,1.57,1.79-2.61.32-2.08,4.52-5.06,2.85.95,1.47,2-.65,1.81,1.56-3.26-1.71-.8,2.12-3.12,2.42-1.22-1.52.5-2.14-1.82-1.86,2,2.68-2.44,2.08-2.76,3.52,2,1.59-.92,3-1.63,5.33-.59-.64-3.78,2.48-5.82,3.55l-.29-.32c1.75,1.93,0,3.33-.58,4.91a3.18,3.18,0,0,1-1.44-2.74l-.92,1.17a2.44,2.44,0,0,1,.07,2.37l-1.24-1.51c-1.2,1.57-.86,4.49-3.49,5.6,1.26,1.28,5.13,1.68,4.26,4.54-.8-.55-2.12-1.56-2-2.36-.05.26.07,1.16-.55,1.24l-.53-1.89c-1.3.42.64,1.35-.09,2-1-.92-1.19-.12-1.94-.94.05-.27,1-.24.78-.87a4,4,0,0,1-3.37.69c.65.45,1.4,1.22,1,1.93-1.23,1.57-1.7-.59-3-.2.4,1-1.19,1.26.33,2.67-.4.42-1.19-.14-1.75-.35,0,1.37-3,3.72-.62,4.34l.28-.1c0,.07,0,.11,0,.19h0c-.38,1.94-1.76,3.06-3.28,4s-3.17,1.82-4,3.33l-.5-.48c-.82,2-2.74,3.53-2.68,5.6-.41.43-1.89.1-2.29-.66-.72,1.43-.3,2.11-2.67,2.84.25-1.93-1.13-.39.5-1.73-1.83,1-2.92.48-3.12,3.32-.72-1.77-2.61-.56-2.91.48l1.87-.06a7,7,0,0,1-2.12,2l-1.25-2c-4.85.69-2,8.48-7.5,7.09.32,1.93,2.38-.64,3,1.41-1.58,1-5.24-.12-5.69.24-2.76.71.49,4.1-2.1,5.2.8.4,2.51,1.85,1.52,3.76-1.62,1-4-1.12-3.56-2.39.29-.35.62-.29.79-.07.25-.62.61-1.41-.53-1.61l.37.79c-1.25,0-3.11,1.72-3.55.29-.53,1.52.44,1.43,1.5,1.07-2.56.68-2.86,2.38-5.26,3.34.59.1,1.5.62,1.19.86-3.43,1.51-.21,2.22-1.86,4.07-1.87-.09-1.54-2.65-2.75-.26-1.69.29-1.63-1.51-1.61-2.41-.69,2.69-3.9,1.79-5.07,2.35l.5-1.25a3.26,3.26,0,0,1-1.21,1.45l1.56.89c-.72.2-1.18.56-1.6,0,.12,1.29,2.15,1.83,2,3.87-1.25-.09-1.65,2.46-3.26.92,2.73-1.2-1.61-1.55.09-3.34a1.91,1.91,0,0,1-1.38,1c-.23-.13-.2-.42-.13-.64-3.37.14.55,2.77-1.76,4.47-.46-1.2-2-1.47-2.17-1,.94-.67,1.7,1.32,1.43,2.71-2.06.33-1.17,1.78-2,2.27l1.16-.3c.45,1.22-.39,1.64-1.19,2.73-.67-.71.54-1.24-.08-1.3.15,2.61-3.93.12-4.65,2.5-1.25-.14-1.45-1.83-2.44-1.83-.87,2.59-3,0-4.08,2.44,1.51,1,1.38.57,1,2.85l2.46-3.19-.6,3.41c1-.66,1.4-2.28,2.13-2.45-.17,1.79-.31,1.38,1,2.18-2.76-1.11-1.74,3-4.23,2.72l-2.34-3.41c-1.66,0-2.35,1.19-3.07,2.48s-1.52,2.67-3.3,3.25l1.36-.05c.52,1.63-1.71,1.43-2.31,2.64-.68-1.21-1.56-1.22-2.45-1.66.62.82-2.22,1.39-1,3.88l-2.35-.64c-2.84.94-.65,5.09-3.27,6.22-.1-1.72-1.69-1.86-.7-3.78-.79.49-1.63.73-1.13,1.54-.92-.44-1.18,3-2.6,2.32,0,.73.64,2-.31,2.47a1.23,1.23,0,0,1-.36-.58c.36.58-.92,1.65.67,2.47-4.73-2.18-6.73,4.51-10.8,2.58a41.81,41.81,0,0,1-5,4.06c-.1-.42-.34-.6,0-.65-2.85.16.62,4.25-2.64,4.44-2.4-1.23.76-1.8-.47-2.09-2.59-3.77-2.77,2.24-5.77.86l.28-.46c-2-.64-2.35,3.27-4.66,4.16a1.31,1.31,0,0,0-.31-.61c-.38,2.82-2.83,5-4.63,6.64-.17-1.92.51-1.33-.72-2.73-.82.72,1.62,2.43,0,3.86-1.06-.54-2.8-.59-3.85-2.22l1.71-1c-2-1.74-2.23,1.27-3.37,1.34l-.38-1c-2.55,1.67-1.35,4.15-4.37,5.44l.67.59c-.4,3.24-2-.7-2.73,1.91l-1.7-2.25c-.77,1.1-2.57,4.18-4.27,5.57.21-2.37,2-4.38,2.84-6.13-1.06.48-3.49,1.89-3.45,3.38.31-.44.55-1.31,1.16-1.12a6.37,6.37,0,0,1-3.75,5.32c-1.87-5-6.11,1.29-9.36-1.79-2.92,3.54-7.8,2.5-12,4.69,3.18,3.17-1.24.66.7,4.49-.93.69-1.35.78-1.55.56l-4.11-1.07c-1.21-.85.62-1.28.16-2.12-2.38.62-1.64-1.29-3.55-1.73.88,1.29,0,2.35-1.45,2.34l2.55,1.09c-2.3,3.4-4.06-2.2-6.41,1.14l.51-1.65c-1.35,1.38-6,2.33-6.41,6.17-.47-.35-1.27-1.29-.66-1.86-4.11,1-7.5,6.73-11.32,5.84l-.05-1.09c-.64.55-.63,2.31-1.91,1.64-.1-.42-.05-1.09-.42-1-.27.48-1.36,2.43-2.54,2.2l.45-1.41c-4.31.09-5,4.78-8.07,6.57-1-2.93-4.35-2.84-6-2.81l-.08-.43c-4.66,1.07-6.93,4.95-10.84,7.37-1.81-1.2-4.14-.85-6.61-.28s-5.12,1.33-7.5,1c.8.35.55,2.34-.12,2.86-1.16-.3-2.19,2.85-2.79.08l.37,0c-1.5-2.46-3.35-1.19-5-.82l.71,3.64c-2.81-2-5.43-.79-7.82.4S771,679,769.3,677c-.79,1.15-2.06,1.45-2.85,2.6l-.42-1.94a22.22,22.22,0,0,0-7.81,1.6l.39-1.55c-2,.34-1.19,6.15-3,6.69l-1.21-2.75c-3.45.86-7.51-.94-10.36,2.45,0-.44-.11-1.29.42-1.54-1.65.29-6.72-.64-5.3,3.22-.58-2.59-3.63.51-5.29,2l-.09-2c-1.1,2.76-1,3.44-3.11,4.55-.58-.15-.76-1.44,0-1.09-2-.66-1,2.09-3.35,1.48l.56-1.37c-1.84.19-1.57.82-2.3,2.43-1,1-3.53.16-4.12-1.53,0,1.1-.79,2.71-1.95,2.4a1.34,1.34,0,0,1,.21-1.34c-3.26-.78-4.12,3-6.54,1.5a1.85,1.85,0,0,0-.55-1.09c2.42-.37,4.37-.61,4.22-.44-.31-1.77-2.31-1.74-1.19-4.46-1.31,1.6-3.48,5-5.52,4.46a2.49,2.49,0,0,1-.35-.57l.16-.23a1.16,1.16,0,0,0-1.15.48,3.87,3.87,0,0,0-1.66-.28c-.46-1.43-2.35-.43-3.33-.34.39,1.93-.93,1.82.52,3.24-.18-.11.15-.26.78-.45.14-.08.3-.14.38-.27l0,.18c.63-.16,1.45-.34,2.39-.53-.6,1.11-1.28,2.07-2.52,1.17-.3,1.33-.64,2.71-.86,3.36-1.77-2.5-4.56-3.58-5.17-5.19-2.8,1.56-6.87,1.75-8.23,5.69-.78.59-1.12-.91-1.52-1.44.44-.44,1-.46,1.22-1-1.56,1.19-5,1-5,3.67-2.29-.87.89-2.52-2-1.7l.29-.84c-3.15-1.66-5.28.25-7.53,2.05s-4.62,3.43-8.13,1.14c.48.27.72.4.86.82-7.55-1.51-14.93,3.74-22.5.61-2.11-.59-2.21,1.07-3.38,2.42l-.6-2.08-2,2.58c-3,2-5.6-4.83-9.26-1.26l.57,1.4c-1.4-.19-4.36,1-4.2-.59-.13.27-.39,1.5-1,.78l-.09-1.1-3.34,2c-2.66-.72.26-4.39-3.55-4.5-1.4.46-3.95,3.28-3.42,4a1.9,1.9,0,0,1,1.52,1.78l-1.31.59a34.27,34.27,0,0,0-.31,4.81,5.06,5.06,0,0,0,2.45,4l2.28-2,.79,1.56-1.95.15c1.15,1.46,1.82.12,2.57-.8a2.71,2.71,0,0,0,1,1.71l2.15-3.19c.32,1.26-.92,2.57.63,3.21,1-1.49-1.12-2.82.58-3.83,1.16,1.44.89,2.66,2.12,1.33a1.55,1.55,0,0,1-.52,1.77c1.1-1.06,3-.56,3.52-2.33,1.24,1.77,3.83-.68,3.89,2.4.32-.76,1.87-2.54,2.91-2.73-1.68,3.81,3.94,0,3.7,3.94,1.19-3.4,5-1.84,7.39-3.88-.12.27-.35.83-.59.68,1.43.16,1.93,1.12,2.89,1.67,0-2.75,2.09-3.56,3.12-5.35,2,2.48-.76,3.3,0,5.79-.28-2.21,2.81-2.48,2-4.27,1.47,1.51,1.21.69,2.11,2.89-.09-3.44,1.18-.7,2.07-2.91,2.07,1.49.81,3.15,2.81,1.9C665.54,714.32,663.79,715.72,663.79,715.72Zm48.89-12.57v0l-1,.28Zm4.13-.74a11.37,11.37,0,0,0-1.81.24c-.26-.64-.22-1.36.2-1.4C715.06,701.73,716.1,701.94,716.82,702.4Zm-10.93-12c.6-.38.88,0,1,.35a6.86,6.86,0,0,0-1.09.42c0,.08,0,.16,0,.25A3.89,3.89,0,0,1,705.88,690.41Z" transform="translate(-616.42 -459.43)" style="fill: #202020"/>
      <path d="M705.13,693.15c-.09.06-.12.15-.24.19a3.58,3.58,0,0,0,.46.37l.13-.65Z" transform="translate(-616.42 -459.43)" style="fill: #202020"/>
      <path d="M1037,534l-.09,0a.75.75,0,0,1,.33.05A1.66,1.66,0,0,1,1037,534Z" transform="translate(-616.42 -459.43)" style="fill: #202020"/>
      <polygon points="157.99 234.56 157.86 234.08 157.61 234.59 157.99 234.56" style="fill: #202020"/>
      <path d="M1057.16,521a1,1,0,0,0,.58.08A1.25,1.25,0,0,0,1057.16,521Z" transform="translate(-616.42 -459.43)" style="fill: #202020"/>
      <path d="M1063.76,513.45l1.41-.7A5.66,5.66,0,0,0,1063.76,513.45Z" transform="translate(-616.42 -459.43)" style="fill: #202020"/>
      <path d="M1069.18,507.88a4.62,4.62,0,0,0-.59-.62h0Z" transform="translate(-616.42 -459.43)" style="fill: #202020"/>
      <path d="M984,596.09a.77.77,0,0,0-.19.25C983.46,597.07,983.75,596.66,984,596.09Z" transform="translate(-616.42 -459.43)" style="fill: #202020"/>
      <path d="M1009.35,569.47a6.33,6.33,0,0,1-.26,1.47C1009.67,570.62,1010.08,570.32,1009.35,569.47Z" transform="translate(-616.42 -459.43)" style="fill: #202020"/>
      <path d="M951.53,621.28v0l-.21.14Z" transform="translate(-616.42 -459.43)" style="fill: #202020"/>
      <path d="M1007.79,572a1.56,1.56,0,0,0,1.29-1.09C1008.6,571.19,1008,571.45,1007.79,572Z" transform="translate(-616.42 -459.43)" style="fill: #202020"/>
      <path d="M1088.81,480.72l.26-.28a.83.83,0,0,1-.25-.21Z" transform="translate(-616.42 -459.43)" style="fill: #202020"/>
      <path d="M1088.83,480.24l0-.48C1088.75,479.92,1088.68,480.07,1088.83,480.24Z" transform="translate(-616.42 -459.43)" style="fill: #202020"/>
      <path d="M1088.89,478.76l0,1C1089,479.51,1089.26,479.22,1088.89,478.76Z" transform="translate(-616.42 -459.43)" style="fill: #202020"/>
      <path d="M1082.51,488.83l.53.49A2.09,2.09,0,0,0,1082.51,488.83Z" transform="translate(-616.42 -459.43)" style="fill: #202020"/>
      <path d="M1081,491.54c.54-.53,2.29-.71,2.49-1.82l-.42-.39C1083.66,490.32,1080.36,490.29,1081,491.54Z" transform="translate(-616.42 -459.43)" style="fill: #202020"/>
      <path d="M1066.41,497.06l1.93-1.75c-.88-.07-2-.19-1.53-1.24C1063.12,495.36,1068.58,494.51,1066.41,497.06Z" transform="translate(-616.42 -459.43)" style="fill: #202020"/>
      <path d="M1060.85,502.76c.54-1.3-.89-.65-1.19-1C1059.69,502.9,1059.7,503.18,1060.85,502.76Z" transform="translate(-616.42 -459.43)" style="fill: #202020"/>
      <path d="M1023.62,545.8l-1.17-1.36C1021.88,545.36,1022.93,544.94,1023.62,545.8Z" transform="translate(-616.42 -459.43)" style="fill: #202020"/>
      <path d="M1022.22,560.13l1.52.08-.78-1.53C1022.72,559.16,1022.48,559.65,1022.22,560.13Z" transform="translate(-616.42 -459.43)" style="fill: #202020"/>
      <polygon points="392.32 95.81 392.48 95.31 391.65 96.98 392.32 95.81" style="fill: #202020"/>
      <path d="M932.93,612.4l1.4,1.73C934.73,613.42,933.58,611.22,932.93,612.4Z" transform="translate(-616.42 -459.43)" style="fill: #202020"/>
      <path d="M897.76,634.09c-.89-.79-2.24-.9-2.41.39C896.25,634.2,897.46,634.56,897.76,634.09Z" transform="translate(-616.42 -459.43)" style="fill: #202020"/>
      <polygon points="164.23 214.64 164.83 213.71 163.49 214.71 164.23 214.64" style="fill: #202020"/>
    </g>
    <g>
      <path d="M1073.67,629.59c.58.22,2,.25,1.73-.24l-2.28-.54Z" transform="translate(-616.42 -459.43)" style="fill: #202020"/>
      <path d="M1078.23,626.83a8.92,8.92,0,0,0-5.13-1.29c2.17.74,1.23.79,3.82,1.61.23.49-.81.75-1.66.59.58.22-.57.68.85,1.06,1.84-.45,2-1.21.58-2.15A3.73,3.73,0,0,1,1078.23,626.83Z" transform="translate(-616.42 -459.43)" style="fill: #202020"/>
      <path d="M1085.91,581.5l-.3.27A.53.53,0,0,0,1085.91,581.5Z" transform="translate(-616.42 -459.43)" style="fill: #202020"/>
      <path d="M1089.7,553.33a.5.5,0,0,0,.47.36C1090,553.47,1089.91,553.3,1089.7,553.33Z" transform="translate(-616.42 -459.43)" style="fill: #202020"/>
      <path d="M1092.68,548.72a2.38,2.38,0,0,0-.18.27C1092.72,548.9,1092.84,548.81,1092.68,548.72Z" transform="translate(-616.42 -459.43)" style="fill: #202020"/>
      <path d="M1085.91,581.5l.79-.69C1086,580.69,1086.11,581.14,1085.91,581.5Z" transform="translate(-616.42 -459.43)" style="fill: #202020"/>
      <path d="M1073.22,620a1.43,1.43,0,0,0,.57.46,2.13,2.13,0,0,1-.21-.41Z" transform="translate(-616.42 -459.43)" style="fill: #202020"/>
      <path d="M1086.66,594.13l0,.23c.26.09.57.18.92.27Z" transform="translate(-616.42 -459.43)" style="fill: #202020"/>
      <path d="M1086.16,603.73c.1-.21-1.85-.46-2.7-.62.8.19,1.17.39,1.3.59A10.31,10.31,0,0,0,1086.16,603.73Z" transform="translate(-616.42 -459.43)" style="fill: #202020"/>
      <path d="M1081.36,618.6l.25.29C1081.53,618.81,1081.46,618.69,1081.36,618.6Z" transform="translate(-616.42 -459.43)" style="fill: #202020"/>
      <path d="M1087.7,587.32a4.32,4.32,0,0,0,.71,0A3,3,0,0,0,1087.7,587.32Z" transform="translate(-616.42 -459.43)" style="fill: #202020"/>
      <path d="M952.48,525.54c0-.14-.08-.22-.11-.33C952.37,525.41,952.4,525.55,952.48,525.54Z" transform="translate(-616.42 -459.43)" style="fill: #202020"/>
      <path d="M938.84,519.79l.11-.15c-.1-.36-.2-.71-.32-1.06Z" transform="translate(-616.42 -459.43)" style="fill: #202020"/>
      <path d="M1096,540.11l0,0C1096.14,540.4,1096.11,540.26,1096,540.11Z" transform="translate(-616.42 -459.43)" style="fill: #202020"/>
      <path d="M1083.51,463.8c.57.74-.17,1.58-.72,2.38s-.95,1.58-.21,2.37a10.44,10.44,0,0,1,1-2.4C1084,465.15,1084.33,464.13,1083.51,463.8Z" transform="translate(-616.42 -459.43)" style="fill: #202020"/>
      <path d="M1073.5,619.81a1.22,1.22,0,0,1,0-.39A.37.37,0,0,0,1073.5,619.81Z" transform="translate(-616.42 -459.43)" style="fill: #202020"/>
      <path d="M1082.57,468.55v0l.15.15Z" transform="translate(-616.42 -459.43)" style="fill: #202020"/>
      <path d="M1096.62,519.64a4,4,0,0,0-.88.13A2.7,2.7,0,0,0,1096.62,519.64Z" transform="translate(-616.42 -459.43)" style="fill: #202020"/>
      <path d="M1092.47,534.56l.3-.35A.67.67,0,0,0,1092.47,534.56Z" transform="translate(-616.42 -459.43)" style="fill: #202020"/>
      <path d="M1094.56,511.52c.17-.19.44-.24.21-.54l-.25.06C1094.78,511.17,1094.89,511.31,1094.56,511.52Z" transform="translate(-616.42 -459.43)" style="fill: #202020"/>
      <path d="M1095.28,503.32c-.15,0-.27.08-.41.12l.08.27Z" transform="translate(-616.42 -459.43)" style="fill: #202020"/>
      <path d="M975.92,516.77a10.78,10.78,0,0,1-.92-1.56C975.57,516.5,974.58,517.35,975.92,516.77Z" transform="translate(-616.42 -459.43)" style="fill: #202020"/>
      <path d="M1074.33,620.13c-.49-.09-.73-.18-.82-.32a1.28,1.28,0,0,0,.08.28A2.1,2.1,0,0,0,1074.33,620.13Z" transform="translate(-616.42 -459.43)" style="fill: #202020"/>
      <path d="M1079.13,509.8l.41-1.28A2.89,2.89,0,0,0,1079.13,509.8Z" transform="translate(-616.42 -459.43)" style="fill: #202020"/>
      <path d="M1031.89,497.92l-.21.32C1031.8,498.25,1031.88,498.16,1031.89,497.92Z" transform="translate(-616.42 -459.43)" style="fill: #202020"/>
      <path d="M1079.59,504.63A3.48,3.48,0,0,0,1081,504a2.44,2.44,0,0,0-.49-.2Z" transform="translate(-616.42 -459.43)" style="fill: #202020"/>
      <path d="M975,515.19v0Z" transform="translate(-616.42 -459.43)" style="fill: #202020"/>
      <path d="M968.29,522.34c1.2-.34-.24-2.59-.46-4.08,1.18-1.17,1.25,1.59,2.15,2.69.67-.94.6-3.42,1.28-3.54a2,2,0,0,1,.38,1c.29-2.26,2.73-1,3-3.82a2.65,2.65,0,0,1,.34.56,20.44,20.44,0,0,1-1.28-3.31c.52-.22.47-1.88,1.2-.34-.34.06-.15.72-.14,1.27l.33-.88c1.26,2.14-.49,1,.07,2.75.84-1.11,1.47-3.44,2.51-3.06.92,2.2-1.69,1.4.08,3l-1.57-.44c2.16,3.23-.86,0,1.3,3.52,1.91.09,1.51-1.78,3.41-1.68,0-1.38-.74-1.81-.78-3.19,1.65-3,3.77,5,4.53,1.46,0-1.65-.81-4.57.94-3.47l.42,2.69c1.72-.29-.28-4,2-2.83,0,1.1-1,1.27-.66,1.49,1.78,1.65.31-1.71,1.16-2l.93,2.2c1.62-.93,3-3.2,4.8-4.25.12.71,0,1.52.7,2.07,2.06-1.94,5.29-1.45,8.08-.88l.25-2.25c.22,0,.68.75.58,1.21,1.16.44-.36-1.25-.18-2.16.48-.31,1.06.89.92,1.59,1.07-2.19,3.42-5.09,5.81-3.56l-.14.69c1.59.35.17-4.49,2-3.08l-.12.42c3.16-.11,5.74-2.95,8.91-.73-.51-2.95,3.26.31,2.15-3.67,2.29,1.4,2,2.25,4.79,2.79.68,0,.11-2.75.74-3.41l.7,2,.32-2.49,1.36,2.27.54-.76c-.33,0-.91-.72-1.06-1.32.81-1.3,3.2.52,3.57,1.56l2.07-2.61c.21.84-.14,1.27-.31,1.91.72-2.56,1,2.07,1.63-.27-.33-.41-.31-1.25-.42-1.67a2.44,2.44,0,0,0,3.44-.33l.26,1.48c2.08-.29,3.91-2,6.13-2.75-1-.4-1.64-2.9-1.07-3.35l1,2.08c0-1.48-.95-.59-.63-2.52.91,0,1.37,2.28,1.13,3.14l.75-1.08a12.16,12.16,0,0,1,.36,1.89c0-1.48,2.45,1.6,2.27-.93l.27.63c2.21-.71,3-1.79,4.72-2.49-.58-1.88.25-1.7.29-3.39,1.52.16,3.47,1.14,5,.46.81-1.3-.2-1.69-.06-3,.65,1.67,2.18,1,1.76,2.49a10.67,10.67,0,0,0,4.27-3.33c-.49-.61-.89-.82-.93-1.45.34-.42,1.23.38,1.44,1.22l-.06.21c1.86-3.45,7.89,2.89,8.87-1.37l-.06.22,1.62-2.59c1.13,0-.19,1.48.92,2.29.28-.49.13-.73.19-1a1,1,0,0,1,.15-.45.32.32,0,0,1,.45-.07c.32.14.43.48.92-.73-.2,2.85-.26,2.77.15,2.29.18-.24.45-.56.56-.57s0,.31-.63,1.42l1-1.65c1.15-1.67-.47.91-.72,1.29.89-1.32.9-1.48,1.58-2.42a3,3,0,0,1,1.13-.77,8.26,8.26,0,0,1-1.62,3,5.65,5.65,0,0,1-2.14,1.78,26.28,26.28,0,0,1,2.8-.68,4.65,4.65,0,0,1,1.43-.13c.21.05.06.26-.71.5a21.1,21.1,0,0,0-2.33.14,2.08,2.08,0,0,1,.79.12,1,1,0,0,1,.23.13l.08.07,0,0s0,0,0,.1a13,13,0,0,1-.15,2.76c-.24,1.83-.53,3.64.48,5.51-.51-.26-1.2-.33-1.16-.67-1.74.6-.33,2.75,1,2.88-.2.54-1.25,0-2,.29-1.05.66,2,2.07.27,2.32-.28,0-.52-.26-.64-.41.77.56-.41,2.25,1.56,2-1,1.24.63,2.61-.61,3.57,2.1.88-1.24,2.18,1.79,2.67-3.15-.38-2.75,2.1-1.34,3.07-.93-.37-1.05.64-2.34.19,0,1,.47,1.89,2.1,1.87-3.93,1.42,2.72,3.81-2.2,4.37a34.08,34.08,0,0,1,2.86,8.34c-3.14-.37-.06-2.85-3.37-3,1.08,2.54,3.65,4.18,2.68,6.51-.49.58-1.33-.48-1.85-.73,1.08,2.54-.7,4.66.82,7a1.51,1.51,0,0,1-.81-.53c.06.43-.55.95.88,1l-.35-.45c2.14-.49,4.18,2.07,5.27,2.25-4-1.09-1.22,2-6.29.43a2.5,2.5,0,0,0,1.85.74c-.31.39-.88.47-1.93,0,.64,1.59,2.21,1.19,2.06,2.56a10.51,10.51,0,0,1-1.74-.58c1.29.82,2.57,1.64,1.89,2.75-.41-.11-1,0-.92-.37,0,2,3.29,3.73,1.79,5.81-3-.92-1.06.66-3.67.54l.67,1.25,1.31-.36c-.14,1,1.68,2.11.75,2.92l-1-.86.32,2,1.09-1c1.25,1.17,3.3.18,2.46,1.49-.24-.3-.12,1-1.71,1.43h0c.78.59,1.61,1.19.89,1.9-.85.12-2.86-.42-3.43-.34,2.13.7.39,2.47,2.65,3.32a6.11,6.11,0,0,0-2.18-.35l1.73.58c-.61.43-.89.47-2,.3-.45,1.41,3.34-.16,1.77,1.42-.13-.15-.4-.11-.64-.41-.9,1.65.83,3.42-.19,4.92-2.66.23-.52-1.44-2.78-1.1.27,2.32,2.72,5,1.91,7.13l.33-.38c3.67.64-2,1.48-.33,2.74a3.73,3.73,0,0,0-1.61-.43c-.73,1.45.63,3.16,1.59,5.55l-.92-.37c-.93.81-.7,2.29-1.22,3.22.92.37.72.9,2.13.69-5.67,2.47,2.4,5.9-2.35,8.12,0-.31-.76-.82-.79-.57l.68,2.31c1.63,0,1-.21,2.3-.56.93.37,1.61,1.07,1.56,1.62-1-1.1-2.59-.22-3.53.13.5,0,1,.17,1.54.18-3,.91,3.22.49,1.15,1.91l-.84-.16c.38.64,1.45,1.28,1.15,1.91-1.89.1-.81-.71-2.34-.89,0,.91,3.37,2.1,1.44,2.75-.49-.43-.44-1-.93-1.41-2.27.7-1.72.85-2.13,1.48l.06-.06-1.13,1.44.63-.34c4.76,1.57.68,2.38,3.73,4.19-2.88-1.75-1.72-.4-3.82-.7-.62.34-1.33.87-1.91.65,1.64.87-1.45,1.08,1,2.32-.68,0-.14.76-1.83.45.45,1,1.2-.12,2,0,2.19,1.65-3.12,3.14-.12,5.5,1.15,1.91,3.42,2.44,4.41,4.21-1.14.46-2.44-.68-2.44-.68-1.08.81-1,1.51-.26,2.43a3,3,0,0,0-1.88.1c.12.7,2.44.68,1.35,1.49a15.64,15.64,0,0,1-2.67-.93c.55.86,1.75,1.77,2.29,2.66-1.2.12-1.75-.66-2.5-1,.45,1,.86,2.53,2.71,3l.72-.54c.06.35-1.63,0-1.95-.25-1.4-.93.75-1.1,1.44-1.09l.38.63c4-.25-.43-2.44-.09-3.62l2.86.76-2.3-1.44c.78-.19,2.41-.23,2.79.4,1.51-.73-1-.85.7-1.45a.54.54,0,0,1,.5.08l-.79-.92c.59.22,2.06,0,1.6.52,1.81-1.35-2-2.62.29-3l.17.14c-.79-2.17-2.11-.39-4.47-2.18l5.35-.58-2.11-.4c.1-.21.29-.62,1.14-.47-1.39-.93-.94.05-2.27-.53,2-.86-.65-2.94,2.76-2.87-1.58-.52-1.34.88-2.36-.33,3.68,0-.51-1.33,1.25-2.13,1.86.46.78,1.27,2.54.47-3.13-.86.86-1.78.32-2.63-2.53-.26-.9-1.83-1.63-3.25.85.16,1.62-2.4,2.65-3.56l.42.07c-2.54-.47-1.94-1.71-2.39-2.7a4.27,4.27,0,0,1,2.76,1l.07-.88a2.06,2.06,0,0,1-1.45-1.19l1.89.39c0-1.18-2-2.56-.63-4-1.78-.24-5.08.75-6.13-.95,1,0,2.63.12,3,.57-.12-.15-.76-.56-.32-.8l1.57.78c.77-.62-1.32-.48-1.12-1,1.38.13,1-.32,2.1-.14.12.15-.61.43-.09.69a3.13,3.13,0,0,1,2.25-1.43c-.79,0-1.85-.17-2-.63,0-1.18,1.69-.25,2.46-.87-.93-.37.13-1-1.93-1.23,0-.34,1-.32,1.58-.4-.85-.69,0-2.85-2.26-2.37l-.16.14s0-.07-.08-.11h0c-1.87-2.17,1.53-4,.83-6.07l.69.06c-.68-1.25-.23-2.66-1.64-3.63,0-.35,1.33-.71,2.14-.49-.44-.95-1.2-1.12.05-2.31,1.12,1,1.09-.22.8,1,.7-1.12,1.83-1.28.05-2.7,1.73.58,2.3-.68,1.82-1.28l-1.33.71a2.52,2.52,0,0,1,.2-1.72l2.29.51c3-2.14-4.42-4.74.47-6.14-1.57-.78-1.26,1.2-3.11.46.41-1.07,3.84-1.92,3.88-2.26,1.42-1.39-3.26-1.71-2.24-3.21-.84.13-3.07.12-3.74-1.13.4-1.07,3.59-1,4.19-.29,0,.27-.23.37-.51.34a1.09,1.09,0,0,0,1.52.53l-.81-.22c.89-.47.94-2,2.27-1.52-.71-.9-1.32-.48-1.81.1,1.32-1.3.23-2.2,1.17-3.58-.48.19-1.47.32-1.44.09,1.22-2-1.49-1.08-1.72-2.56,1.33-.71,3,.56,2.06-1,.93-.81,2.21,0,2.85.42-1.48-1.47,1.27-2.38,1.63-3.11l.6.76a1.34,1.34,0,0,1-.28-1.14l-1.69.25c.33-.38.36-.73,1.05-.66-1-.52-2.78.08-4.19-.89.89-.47-.75-1.74,1.46-1.74-.9,1.65,2.22,0,2.45,1.49-.24-.3-.2-.65.13-1a.65.65,0,0,1,.57.22c2.11-1.47-2.42-1-2.21-2.68,1.22.33,2.38-.19,2.14-.49-.09.68-2.09.14-3-.57,1.06-1-.61-1.25-.45-1.81l-.51.61c-1.22-.33-1-.86-1.33-1.66,1,0,.6.75,1.05.52-2.1-1,2.42-1.71,1.06-3,.89-.47,2.33.15,2.94-.27-1.49-1.46,1.82-1.28.62-2.79-1.7.25-1.3.36-2.83-.76l1,2.39-2.29-1.68c-.09.69.92,1.55.6,1.94-1.29-.82-.89-.71-2.3-.5,2.58-.72-1.29-2,.5-2.94l4.11.4c2-1.47-1.85-3.1-.63-5.14l-.78.62c-1.61-.43-.11-1.33-.71-2.08a5.65,5.65,0,0,0,2.79-.42c-1-.06.23-1.55-2.5-2l1.9-.79c.9-1.65-3.75-2.31-3.13-3.92,1.45.63,2.49,0,3.47,1.17.06-.55.36-1-.59-1.12.89-.25-1.72-1.69-.37-2.09-.58-.29-2-.49-1.85-1.1a2.05,2.05,0,0,1,.68.06c-.68-.06-.84-1.05-2.41-.65,4.45-1.31.11-4.78,3.93-5.92a15.76,15.76,0,0,1-.67-3.84c.41.11.69.06.52.26,1.41-1.39-3.87-1.28-2.29-2.87,2.3-.68,1.12,1,2,.55,4.55.17-.43-2.12,2.31-3l.24.3c1.62-.74-1.52-2.31-1.07-3.72a2.19,2.19,0,0,0,.68.07c-2.22-1.2-2.82-3.1-3.33-4.6,1.73.64.88.73,2.7.64-.2-.67-2.91-.07-3.29-1.47,1-.42,2-1.6,3.95-2l0,1.71c1.29-.45,1.33-1.09,1.1-1.65s-.73-1.05-.46-1.55l1.1-.09c-.1-2.85-2.95-1.87-2.52-4.48l-.89.68c-1.37,0-.95-.37-.43-.93s1.14-1.21.12-1.19q1.49-1.12,3-2.32a9.87,9.87,0,0,0-1.57-1,3.37,3.37,0,0,1-1.45-1.13c2.17-1.28,3.12-.12,4.3.39.12-1.1.11-3.55-1.33-2.68.26.12.95,0,.45.82-2.24.72-3.31.62-3.11-1.06,3.6-3.68,3.55-5.43,4-7.75-1,.15-1.76,0-.83-2-2.87,2-4.4,2.28-6.12,2.41a17.09,17.09,0,0,0-6,1c.21,4.32-1.35.57-2.22,5.37-.91.59-1.19.61-1.22.33a13.4,13.4,0,0,0-2.53-1.85c-.73-1.07,1-1.32,1-2.32-1.18.22-1.45-.17-1.62-.7s-.23-1.2-1.18-1.48c.44,1.47-.7,2.54-2.23,2.43a21.9,21.9,0,0,1,2.22,1.34c-1.47,1.69-2.21,1-3.18.36a3,3,0,0,0-1.55-.64c-.17,0-.24,0-.32,0a.58.58,0,0,0-.25.11,1.62,1.62,0,0,0-.48.68l.19-1.48c-.74,1.08-3.68,1.19-3.57,4.78-.33-.41-.93-1.44-.59-1.88-2.54.3-4.14,5.23-6.65,3.83l-.15-1.05c-.35.43-.15,2.12-1,1.31-.11-.42-.15-1.05-.37-1-.12.42-.6,2.13-1.38,1.75l.13-1.28c-2.75-.53-2.65,3.9-4.37,5.23a4.67,4.67,0,0,0-4.17-3.44l-.11-.42c-2.82.53-3.78,3.94-5.9,5.92-2.6-2.66-5.69.41-8.78-.54a3,3,0,0,1,.35,2.74c-.78-.4-.94,2.57-1.74-.15l.23,0c-1.31-2.49-2.28-1.39-3.25-1.15l1,3.56c-4.15-4.29-5.81,4-8.67-.12-.3,1.07-1,1.31-1.34,2.38l-.59-1.89a7.65,7.65,0,0,0-4.58,1.22l0-1.48c-1.18.26.35,5.9-.67,6.36l-1.25-2.7c-2,.71-4.82-1.09-5.95,2.11-.1-.42-.31-1.25,0-1.47-1,.24-4.27-.7-2.65,3-.86-2.5-2.14.44-2.85,1.9l-.45-1.91c-.13,2.67.06,3.32-1,4.4-.38-.14-.76-1.39-.2-1.05-1.33-.64-.2,2-1.74,1.43l.06-1.33c-1.08.2-.79.81-.9,2.37-.4,1-2.11.18-2.82-1.44.2,1.07.09,2.62-.68,2.34a1.9,1.9,0,0,1-.15-1.3c-2.14-.69-1.85,3-3.64,1.58a2.78,2.78,0,0,0-.57-1c1.39-.41,2.53-.67,2.47-.51-.57-1.71-1.77-1.64-1.67-4.29-.46,1.58-1.06,4.88-2.4,4.44a3.61,3.61,0,0,1-.34-.54l0-.23c-.31-.09-.48.15-.59.5a1.77,1.77,0,0,0-1.07-.22c-.6-1.37-1.52-.34-2.1-.23.66,1.85-.16,1.79,1,3.11-.13-.11,0-.26.37-.46.06-.08.15-.14.17-.27l0,.18c.34-.17.8-.37,1.33-.58-.12,1.09-.31,2-1.27,1.21.11,1.29.21,2.63.23,3.27-1.62-2.35-3.54-3.28-4.28-4.82-1.34,1.61-3.75,2-3.64,5.87-.33.61-.89-.82-1.25-1.32.16-.44.51-.5.49-1.05-.66,1.22-2.73,1.29-2.14,3.82-1.58-.71-.07-2.48-1.6-1.53l0-.82c-4.57-2.83-3.24,8-8.53,4.19a1.49,1.49,0,0,1,.71.72c-4.87-.85-7.82,4.9-13.06,2.74-1.39-.33-1,1.28-1.31,2.71l-.92-1.92-.44,2.72c-1.15,2.26-4.6-3.94-5.71,0l.73,1.26c-.86,0-2.2,1.61-2.59,0,0,.27.21,1.49-.33.89l-.37-1-1.32,2.43c-1.74-.27-1.15-4.24-3.38-3.73-.67.67-1.28,3.82-.74,4.42.34-.06,1,.38,1.42,1.42l-.56.79c.89,3.14,1.38,6.49,3.9,8.06l.63-2.31.9,1.37-1,.45c1.07,1.21,1-.16,1.18-1.16a3.53,3.53,0,0,0,1.08,1.48l.26-3.36c.55,1.16.24,2.58,1.29,3,.12-1.56-1.45-2.53-.79-3.75,1.07,1.2,1.27,2.41,1.58,1a2.21,2.21,0,0,1,.22,1.76c.31-1.16,1.53-1,1.31-2.71,1.2,1.53,2-1.16,2.88,1.79,0-.77.35-2.67.88-3,.11,3.86,2.23-.51,3.2,3.34-.26-3.41,2.36-2.34,3.17-4.54,0,.28,0,.83-.15.71.87,0,1.41.88,2.11,1.31-.76-2.64.25-3.63.38-5.46,1.79,2.19.43,3.25,1.53,5.56-.75-2.09,1-2.66.05-4.31,1.25,1.31.88.55,2,2.58-1-3.3.5-.78.44-3,1.59,1.25,1.28,3,2.12,1.59C968.94,520.84,968.29,522.34,968.29,522.34Zm25.76-14.79v0l-.54.29Zm2.31-.8a3.89,3.89,0,0,0-1,.26c-.29-.62-.43-1.31-.18-1.35C995.17,506.13,995.84,506.32,996.36,506.75Zm-9.2-11.32c.28-.39.52-.06.7.31a2.68,2.68,0,0,0-.57.44l0,.24A6.11,6.11,0,0,1,987.16,495.44Z" transform="translate(-616.42 -459.43)" style="fill: #202020"/>
      <path d="M987.32,498.11c0,.06,0,.15-.11.19a3.68,3.68,0,0,0,.36.35l-.06-.63Z" transform="translate(-616.42 -459.43)" style="fill: #202020"/>
      <path d="M1085.56,581.81l0,0a.91.91,0,0,1-.29.08C1085.42,581.82,1085.48,581.83,1085.56,581.81Z" transform="translate(-616.42 -459.43)" style="fill: #202020"/>
      <polygon points="413.19 40.28 413.02 39.81 412.96 40.29 413.19 40.28" style="fill: #202020"/>
      <path d="M1077.63,594.63a1.23,1.23,0,0,0-.52.13A1.63,1.63,0,0,0,1077.63,594.63Z" transform="translate(-616.42 -459.43)" style="fill: #202020"/>
      <path d="M1076.67,600.39l-.77.76A3.1,3.1,0,0,0,1076.67,600.39Z" transform="translate(-616.42 -459.43)" style="fill: #202020"/>
      <path d="M1075.3,604.76a7.75,7.75,0,0,0,.83.16h0Z" transform="translate(-616.42 -459.43)" style="fill: #202020"/>
      <path d="M1079.33,533.7a.33.33,0,0,0-.07-.18C1078.92,533.08,1079,533.37,1079.33,533.7Z" transform="translate(-616.42 -459.43)" style="fill: #202020"/>
      <path d="M1082,555.19a5,5,0,0,1-.87-.76C1081,554.79,1080.91,555.08,1082,555.19Z" transform="translate(-616.42 -459.43)" style="fill: #202020"/>
      <path d="M1079.08,509.94h0a1,1,0,0,1,0-.15Z" transform="translate(-616.42 -459.43)" style="fill: #202020"/>
      <path d="M1081.28,553.45a.61.61,0,0,0-.12,1C1081.32,554.14,1081.55,553.79,1081.28,553.45Z" transform="translate(-616.42 -459.43)" style="fill: #202020"/>
      <path d="M1072.69,624l-.1.21a1.39,1.39,0,0,1,.31.05Z" transform="translate(-616.42 -459.43)" style="fill: #202020"/>
      <path d="M1072.9,624.25l.21.26C1073.12,624.4,1073.11,624.3,1072.9,624.25Z" transform="translate(-616.42 -459.43)" style="fill: #202020"/>
      <path d="M1073.56,625.06l-.45-.55C1073.09,624.68,1073,624.89,1073.56,625.06Z" transform="translate(-616.42 -459.43)" style="fill: #202020"/>
      <path d="M1074.12,618.17l-.71-.13A3.49,3.49,0,0,0,1074.12,618.17Z" transform="translate(-616.42 -459.43)" style="fill: #202020"/>
      <path d="M1074.08,616.36c-.2.41-1.61.94-1.22,1.57l.56.11C1072.38,617.67,1075.24,616.87,1074.08,616.36Z" transform="translate(-616.42 -459.43)" style="fill: #202020"/>
      <path d="M1083.53,609.66l-.7,1.45c.78-.19,1.83-.45,2,.25C1087.21,609.67,1083,611.6,1083.53,609.66Z" transform="translate(-616.42 -459.43)" style="fill: #202020"/>
      <path d="M1085,605.1c.28.84,1.1.09,1.52.17C1085.92,604.7,1085.76,604.56,1085,605.1Z" transform="translate(-616.42 -459.43)" style="fill: #202020"/>
      <path d="M1088.06,571.44l1.78.24C1089.64,571,1089.15,571.62,1088.06,571.44Z" transform="translate(-616.42 -459.43)" style="fill: #202020"/>
      <polygon points="463 104.76 461.83 105.27 463.44 105.7 463 104.76" style="fill: #202020"/>
      <polygon points="476.04 102.09 476.27 102.39 475.71 101.29 476.04 102.09" style="fill: #202020"/>
      <path d="M1096.88,504.93h-2.21C1095,505.38,1097.48,505.69,1096.88,504.93Z" transform="translate(-616.42 -459.43)" style="fill: #202020"/>
      <path d="M1097.09,477.32c1.19-.91,2-2.46.95-2.45C1097.81,475.82,1096.83,477.07,1097.09,477.32Z" transform="translate(-616.42 -459.43)" style="fill: #202020"/>
      <polygon points="413.79 21.45 414.03 20.59 413.34 21.47 413.79 21.45" style="fill: #202020"/>
    </g>
  </g>
</svg>
