<svg id="Layer_1" data-name="Layer 1" xmlns="http://www.w3.org/2000/svg" viewBox="0 0 841.89 595.28">
  <title>contour_pattern</title>
  <g>
    <path d="M669.09,216c3.47-5,3.39-13.85-.22-23.79-3.45-9.5-8.72-10.92-11.55-10.92a10.66,10.66,0,0,0-8.91,5.26c-6.35,11.42-8.22,20.14-5.54,25.93,1.8,3.9,5.66,6.46,11.47,7.63a24.5,24.5,0,0,0,4.77.51h0C663.58,220.63,666.95,219.08,669.09,216Zm-10,3.62h0a23.5,23.5,0,0,1-4.57-.49c-5.48-1.1-9.1-3.47-10.76-7.06-2.53-5.49-.68-13.91,5.51-25a9.61,9.61,0,0,1,8-4.74c4.44,0,8.21,3.64,10.61,10.26,3.5,9.63,3.63,18.18.34,22.88C666.32,218.22,663.24,219.63,659.1,219.63Z" transform="translate(0 0)" style="fill: #1b75bc"/>
    <path d="M334.17,464.53h0c8.13,0,16.7-8,22.92-21.28,4.29-9.2,2.89-14.75,1-17.78A12.63,12.63,0,0,0,347.42,420a11.79,11.79,0,0,0-3.23.43c-15.61,4.45-24.91,10.46-27.64,17.88-1.83,5-.7,10.6,3.37,16.71C324.14,461.32,328.93,464.53,334.17,464.53Zm-16.67-25.89c2.61-7.1,11.69-12.91,27-17.26a10.8,10.8,0,0,1,3-.39,11.63,11.63,0,0,1,9.78,5c1.8,2.82,3.08,8-1,16.82-6,12.77-14.39,20.7-22,20.7h0c-4.88,0-9.39-3.06-13.41-9.08C316.88,448.62,315.78,443.3,317.49,438.64Z" transform="translate(0 0)" style="fill: #1b75bc"/>
    <path d="M392.44,287.81h0c10.11,0,20.26-5.18,30.16-15.41C435,259.6,439.5,247.12,436,235.3c-4.94-16.59-26-30.6-56.37-37.49A71.43,71.43,0,0,0,364,195.89c-15.8,0-23.29,7-26.79,12.8-5.53,9.23-4.22,20.58-.67,27.22C354.92,270.35,373.74,287.81,392.44,287.81ZM338,209.21c3.37-5.62,10.6-12.32,25.93-12.32a70.45,70.45,0,0,1,15.42,1.9c30,6.8,50.8,20.56,55.63,36.8,3.41,11.44-1,23.6-13.14,36.12-9.7,10-19.6,15.1-29.44,15.1h0c-18.3,0-36.82-17.29-55.05-51.37C334,229,332.71,218.1,338,209.21Z" transform="translate(0 0)" style="fill: #1b75bc"/>
    <path d="M395,264.76h0c5.12,0,10.2-2.57,15.11-7.64,6.18-6.38,8.4-12.68,6.6-18.71-2.46-8.26-12.73-15.18-27.47-18.52a34.87,34.87,0,0,0-7.65-.94c-8,0-11.88,3.61-13.7,6.64a14.75,14.75,0,0,0-.35,14.06C376.48,256.31,385.72,264.76,395,264.76Zm-24.53-37.63c2-3.39,5.88-5.18,11.13-5.18a31.92,31.92,0,0,1,7,.86c13.47,3.05,23.15,9.36,25.26,16.46,1.46,4.92-.52,10.22-5.88,15.77-4.32,4.46-8.68,6.72-13,6.72h0c-8.12,0-16.46-7.92-24.81-23.52A11.82,11.82,0,0,1,370.49,227.13Z" transform="translate(0 0)" style="fill: #1b75bc"/>
    <path d="M688,201c0-30.16-19.54-59.33-35.72-63.37a25.15,25.15,0,0,0-5.95-.89c-2.32,0-4,.61-5.13,1.88-2.12,2.37-1.67,6.34-1.1,11.36a67.7,67.7,0,0,1,.61,10.41c-.33,8.43-4.88,12.11-10.63,16.77a53.37,53.37,0,0,0-9.87,9.62c-5.21,7-8.78,18.67-5,28.92,2.42,6.61,9,15.34,26.69,19.44a86.55,86.55,0,0,0,19.27,2.62C684.71,237.72,688,220.06,688,201Zm-70,13.66c-3.37-9.19-.11-19.73,4.62-26.1a50.21,50.21,0,0,1,9.35-9.08c5.84-4.73,11.36-9.19,11.75-19a70.22,70.22,0,0,0-.62-10.86c-.46-4.11-.86-7.66.36-9a3.76,3.76,0,0,1,2.89-.87,22.63,22.63,0,0,1,5.22.8C666.67,144.29,685,172.11,685,201c0,24.6-6.47,33.75-23.86,33.75a83.68,83.68,0,0,1-18.59-2.54C629.38,229.13,621.12,223.22,618,214.63Z" transform="translate(0 0)" style="fill: #1b75bc"/>
    <path d="M390.2,405.14c6.31,0,14.76-8.81,18.68-17,3.36-7,3.39-13.16.1-17.24-2.26-2.8-4.8-4.22-7.53-4.22s-5.4,1.39-8,4.13c-5.69,6-9.93,17.8-9.46,26.29C384.39,404.09,388,405.14,390.2,405.14Zm5.44-32.3c1.38-1.46,3.5-3.19,5.81-3.19,1.78,0,3.53,1,5.2,3.1,3.41,4.22,1.17,10.62-.47,14.06-3.76,7.88-11.52,15.33-16,15.33-.72,0-2.91,0-3.2-5.24C386.57,389.26,390.53,378.24,395.64,372.84Z" transform="translate(0 0)" style="fill: #1b75bc"/>
    <path d="M705.33,254.17c9.1-10.53,12.6-25,10.12-42-6.91-47.1-29.33-64.14-45.71-76.59-10.08-7.66-18-13.71-18.46-24.06-1.13-28-10.39-35-44-46.22-27.71-9.24-30.58-15.2-37.52-29.62-1.39-2.88-3-6.14-4.92-9.81-4-7.57-8.6-11.74-12.84-11.74a6.92,6.92,0,0,0-5,2.32c-4.61,4.74-6.9,16.12-6.46,32,.62,22.26,12.74,36.25,26.78,52.45,9,10.35,19.14,22.09,27.19,37.45,11.21,21.39,9.71,33.67,7.81,49.22-1.52,12.46-3.25,26.59,1.3,48.66,4.85,23.55,32.27,35.88,56.85,35.88C679.07,272.2,695.43,265.63,705.33,254.17Zm-100.75-18c-4.52-21.92-2.8-36-1.29-48.34,1.84-15.1,3.44-28.14-7.91-49.81-8.1-15.46-18.31-27.24-27.32-37.64-13.91-16.05-25.92-29.92-26.53-51.82-.44-15.65,1.76-26.77,6.18-31.31a6,6,0,0,1,4.32-2c3.79,0,8.15,4.08,12,11.21,1.95,3.65,3.52,6.9,4.9,9.77,6.86,14.26,10,20.77,38.1,30.14,33.08,11,42.19,17.91,43.3,45.32.44,10.81,8.56,17,18.85,24.81,16.24,12.34,38.47,29.24,45.32,75.93,2.47,16.86-.85,30.71-9.88,41.16-9.71,11.24-25.8,17.69-44.13,17.69C636.27,271.2,609.32,259.15,604.57,236.12Z" transform="translate(0 0)" style="fill: #1b75bc"/>
    <path d="M313.11,85c1.12,31.83,2.39,67.9,46.29,85.93,13.3,5.46,25.42,9.26,36.12,12.61,35.66,11.17,59.21,18.55,80,71,29.24,73.64,64.6,110.88,108.09,113.84q3.24.22,6.31.22c19.2,0,33.34-6.41,39.28-18,7.14-13.93,1.56-33.08-15.7-53.93-24.85-30-27.13-51.43-30-78.54-1.2-11.3-2.45-23-5.42-36.65-5.93-27.27-20.32-45.91-34.23-63.94C533.62,104.3,524,91.78,518,76.46,506.77,47.56,509.7,12.61,511.29,0h-3c-1.63,13.2-4.42,48.33,6.94,77.55,6.11,15.72,15.9,28.4,26.26,41.83,13.71,17.77,27.89,36.14,33.68,62.74,2.94,13.51,4.18,25.11,5.37,36.33,2.83,26.53,5.27,49.43,30.7,80.14,16.45,19.87,21.9,37.85,15.34,50.65-6,11.7-21.57,17.58-42.72,16.15-42.23-2.88-76.74-39.5-105.51-112-21.34-53.76-45.44-61.31-81.92-72.73-10.64-3.33-22.7-7.11-35.87-12.52-42.12-17.3-43.35-52.34-44.43-83.26-.36-10.27-.7-20-2.47-28.55C308.49,31.35,295.29,10,288.31,0h-3.67C291,8.83,305.33,30.88,310.7,57,312.42,65.31,312.75,74.89,313.11,85Z" transform="translate(0 0)" style="fill: #1b75bc"/>
    <path d="M346.87,73.86c2.93,28.66,6,58.29,41.33,78.85,16.45,9.56,31,14.86,43.84,19.54,21.72,7.91,38.87,14.15,54.66,36.26,4.36,6.11,8.39,12,12.29,17.79,16.18,23.84,28.52,42,44.07,42a22.66,22.66,0,0,0,8.31-1.66c3.5-1.37,5.95-4.57,7.26-9.5,7.05-26.42-19.36-96.57-37.57-119.26q-1.72-2.14-3.59-4.44c-21-25.9-55.81-68.83-46-133.46h-1c-9.83,65,25.11,108.07,46.21,134.09q1.86,2.3,3.58,4.43c18.1,22.56,44.37,92.19,37.38,118.38-1.23,4.61-3.47,7.58-6.66,8.83-19,7.44-32.5-12.46-51.19-40-3.9-5.75-7.93-11.69-12.3-17.81-16-22.37-33.26-28.66-55.14-36.62-12.8-4.66-27.31-9.94-43.68-19.46-34.92-20.3-37.93-49.68-40.84-78.08-.72-7-1.46-14.24-2.66-21.25A156.49,156.49,0,0,0,326.2,0H325a155,155,0,0,1,19.18,52.68C345.42,59.66,346.16,66.88,346.87,73.86Z" transform="translate(0 0)" style="fill: #1b75bc"/>
    <path d="M449.69,143l1.65.63c8.79,3.34,16.23,5,21.87,5,5,0,8.64-1.33,10.5-4,3.77-5.41,0-15.35-10.46-27.27C453.1,94.34,434.79,48.27,440.63,0h-1c-5.82,48.53,12.6,94.85,32.88,118.06,9.94,11.37,13.82,21.11,10.39,26-3.67,5.27-15,4.77-31.2-1.38L450,142.1c-34.37-13.06-59.2-22.49-65.16-70.24C380.34,35.54,370.06,10.39,365.15,0H364c4.78,10,15.26,35.25,19.85,72C389.93,120.33,416.3,130.35,449.69,143Z" transform="translate(0 0)" style="fill: #1b75bc"/>
    <path d="M511,217.35c7.61,13.38,14.79,26,23.7,26h0a9.35,9.35,0,0,0,1.42-.11c1.78-.27,4-1.53,4.67-5.95,2.43-16.78-19.35-66.93-34.77-74.19a18.13,18.13,0,0,0-7.63-1.94,9.61,9.61,0,0,0-9.17,5.86c-3,6.46-1.37,18.35,8.91,30.33C502.65,202.58,506.92,210.08,511,217.35ZM492,168.29a6.67,6.67,0,0,1,6.44-4.11,15.2,15.2,0,0,1,6.35,1.65c14,6.57,35.26,56,33.08,71-.46,3.15-1.73,3.35-2.15,3.41a6.37,6.37,0,0,1-1,.07h0c-7.16,0-14.25-12.46-21.09-24.51-4.2-7.39-8.54-15-13.19-20.45C491.09,184.5,489.5,173.7,492,168.29Z" transform="translate(0 0)" style="fill: #1b75bc"/>
    <path d="M294.56,359.1l1,0c12.68-.63,42.94-30.15,46-42.25.74-3-.29-4.29-1.29-4.89a6.89,6.89,0,0,0-3.62-1c-5.78,0-13.26,5.85-21.17,12-5.1,4-10.38,8.12-15.15,10.55-11.28,5.75-16,14.57-14.7,20C286.43,357.06,289.7,359.1,294.56,359.1Zm6.17-24.65c4.86-2.48,10.17-6.63,15.31-10.65,7.78-6.08,15.12-11.83,20.56-11.83a5.84,5.84,0,0,1,3.1.82c1,.62,1.31,1.9.83,3.79-3,11.88-32.65,40.88-45.07,41.49-5,.24-8.12-1.48-8.92-4.79C285.34,348.27,289.9,340,300.73,334.45Z" transform="translate(0 0)" style="fill: #1b75bc"/>
    <path d="M592.53,350.15c3,.74,4.29-.29,4.89-1.29a6.89,6.89,0,0,0,1-3.62c0-5.78-5.85-13.26-12-21.17-4-5.1-8.12-10.38-10.55-15.15-5.75-11.28-14.57-16-20-14.7-3.55.85-5.58,4.13-5.58,9,0,.31,0,.63,0,1C550.91,316.85,580.44,347.11,592.53,350.15Zm-36.45-55c5-1.2,13.31,3.36,18.83,14.18,2.48,4.86,6.63,10.17,10.65,15.31,6.08,7.78,11.83,15.12,11.83,20.56a5.84,5.84,0,0,1-.82,3.1c-.62,1-1.9,1.31-3.79.83-11.88-3-40.88-32.65-41.49-45.07C551,299.15,552.76,296,556.07,295.2Z" transform="translate(0 0)" style="fill: #1b75bc"/>
    <path d="M626.68,131.26c3.55-.85,5.58-4.13,5.58-9,0-.31,0-.63,0-1-.63-12.68-30.15-42.94-42.25-46-3-.74-4.29.29-4.89,1.29a6.89,6.89,0,0,0-1,3.62c0,5.78,5.85,13.26,12,21.17,4,5.1,8.12,10.38,10.55,15.15C612.47,127.84,621.3,132.55,626.68,131.26ZM607.62,116.1c-2.48-4.86-6.63-10.17-10.65-15.31-6.08-7.78-11.83-15.12-11.83-20.56a5.84,5.84,0,0,1,.82-3.1c.62-1,1.9-1.31,3.79-.83,11.88,3,40.88,32.65,41.49,45.07.24,5-1.48,8.12-4.79,8.92C621.43,131.49,613.13,126.93,607.62,116.1Z" transform="translate(0 0)" style="fill: #1b75bc"/>
    <path d="M205.13,509.93c-2.94-25.94-5.72-50.45,1.92-58,2-2,4.72-2.71,8.29-2.24,19.12,2.52,36.63,23.81,53.56,44.4,16.63,20.22,33.82,41.13,53.13,45.09,32.43,6.65,44.45-10.49,73.46-51.92,7.58-10.82,16.17-23.08,26.64-37.14,38.79-52,72.55-43.17,111.64-32.89,11.62,3.05,23.64,6.21,36.52,8.05,34.75,5,63.24-1.56,78.17-17.9,11.29-12.36,14.63-30,9.65-51.06-10.67-45.08.53-48,25.06-54.35,3.44-.89,7-1.82,10.83-2.94,17.71-5.19,32.52-17.95,41.73-35.93,10.93-21.37,13.75-49.86,8.15-82.4-12-69.91-58-100.91-112.42-131.5C595.07,28.79,586.31,9,584.22,0h-3.14C583,9.42,591.58,30.27,630,51.87c53.71,30.2,99.13,60.78,110.94,129.39,5.49,31.89,2.77,59.74-7.87,80.52-8.82,17.24-23,29.47-39.9,34.42-3.78,1.11-7.32,2-10.74,2.91-24.87,6.45-38.57,10-27.23,57.95,4.74,20,1.65,36.75-8.95,48.35-14.24,15.59-41.77,21.77-75.53,17-12.7-1.81-24.64-5-36.18-8-40.14-10.55-74.81-19.66-114.81,34-10.51,14.09-19.11,26.38-26.7,37.21-29,41.45-39.89,57-70.4,50.71-18.27-3.75-35.12-24.24-51.42-44.06-17.3-21-35.2-42.8-55.49-45.47-4.48-.59-8.11.44-10.79,3.07-8.68,8.53-6,32.58-2.8,60.43,3.62,31.95,7.67,67.8-5.3,85h3.65C212.67,576.54,208.69,541.38,205.13,509.93Z" transform="translate(0 0)" style="fill: #1b75bc"/>
    <path d="M36.36,216.29c11.47,17,25.75,38.18,49,38.18,14.71,0,25.61-4.08,36.15-8,14.55-5.45,27.11-10.15,46.75-3.18,12.34,4.38,24.13,12.7,36.6,21.51,18.54,13.09,37.61,26.55,59.09,26.55A51.3,51.3,0,0,0,275.38,290c18.59-4.24,31.28-13.49,36.7-26.76,6.78-16.59,2-38.41-13.91-63.11-20.92-32.56-18.46-60.85-15.85-90.8,1-12,2.13-24.49,1.85-37.83C283.42,36.66,267.62,11.1,259.29,0h-3.77c7.52,9.55,24.87,35.43,25.65,71.59.28,13.18-.79,25.55-1.84,37.51-2.66,30.48-5.16,59.26,16.31,92.68,15.32,23.84,20,44.71,13.65,60.35-5,12.33-17,21-34.59,25-25,5.68-46.9-9.8-68.12-24.78-12.09-8.54-24.6-17.36-37.33-21.88-20.66-7.34-34.33-2.22-48.8,3.19-10.29,3.85-20.94,7.84-35.1,7.84-21.65,0-35.43-20.43-46.51-36.85C32.49,205.2,27,197.07,21,193.68a61.87,61.87,0,0,0-21-7.61v3a59.38,59.38,0,0,1,19.52,7.18C24.92,199.34,30.22,207.19,36.36,216.29Z" transform="translate(0 0)" style="fill: #1b75bc"/>
    <path d="M61.29,445.65c20.15-4.77,32.88-18.86,45.19-32.49,11.68-12.93,22.71-25.14,39.19-28.53,12.38-2.55,29.21-1,48.71.81,33.26,3.08,74.65,6.91,109.3-10.09,22.91-11.24,36.25-26.09,43.41-36.56,8.88-13,13.13-26.7,11.35-36.65-1.45-8.09-6.63-13-14.58-13.81-13.56-1.39-24,7.67-35,17.25-12.08,10.48-24.56,21.32-42.24,19.33-16.68-1.86-35-10.81-52.68-19.45-18.58-9.08-37.78-18.46-55.2-19.64-11.35-.77-24.07,2.55-37.54,6.07-26.44,6.91-53.78,14-72.23-10.33C28.93,255.14,10,247.93,0,246v3.14c9.58,2.05,27.63,9.25,46.52,34.22,19.66,26,49.26,18.24,75.38,11.42,13.22-3.45,25.71-6.71,36.58-6,16.83,1.14,35.77,10.39,54.08,19.35C230.5,316.91,249,326,266.23,327.89c19,2.13,32.56-9.66,44.54-20,10.55-9.15,20.51-17.79,32.77-16.53,8.34.85,11.09,6.65,11.93,11.36,3,16.93-13.75,50.67-53.13,70-33.89,16.63-74.82,12.84-107.71,9.8-19.73-1.83-36.77-3.4-49.59-.76-17.44,3.59-28.79,16.16-40.81,29.46s-24.41,27-43.65,31.58A147.14,147.14,0,0,1,0,444.33v3a143.56,143.56,0,0,0,26.23,2.34A152.34,152.34,0,0,0,61.29,445.65Z" transform="translate(0 0)" style="fill: #1b75bc"/>
    <path d="M160.88,545.3c-1.69-16.36-3.6-34.89-.85-54.37,4.79-33.91,3.79-50.42-3.58-58.9-3.87-4.46-9.7-6.63-17.81-6.63-12.86,0-23.49,10.7-35.8,23.08-9.68,9.75-20.66,20.79-33.92,27-22.14,10.38-54.75,9.15-68.93,8v3c14.55,1.23,47.26,2.44,70.2-8.31,13.74-6.44,24.91-17.69,34.77-27.61,11.84-11.91,22.06-22.2,33.67-22.2,7.29,0,12.23,1.78,15.55,5.6,6.63,7.63,7.46,24,2.87,56.51-2.8,19.84-.87,38.57.84,55.1,2.14,20.78,3.88,37.65-3.93,49.68h3.49C164.7,582.43,162.91,565,160.88,545.3Z" transform="translate(0 0)" style="fill: #1b75bc"/>
    <path d="M139,480.89c-1.87-10.12-5.25-15.94-9.79-16.85-12.69-2.53-27,12.37-42.05,28.15-9.37,9.79-19,19.92-28.49,25.82C40.69,529.23,13,532.16,0,532.92v1c13.07-.77,41-3.72,59.17-15.06,9.55-6,19.28-16.14,28.68-26,14.9-15.58,29-30.3,41.13-27.86,4.1.82,7.22,6.37,9,16,5.83,31.57-3.84,92.18-25.8,114.21h1.43C136.5,571.42,144.15,508.91,139,480.89Z" transform="translate(0 0)" style="fill: #1b75bc"/>
    <path d="M119.57,526.69c-.11-7-2-11.71-5.51-13.5-9.82-5.06-12.51-2.11-21.4,7.66a253.58,253.58,0,0,1-26.54,25.69A141.17,141.17,0,0,1,0,577v1A142.2,142.2,0,0,0,66.76,547.3,254.29,254.29,0,0,0,93.4,521.52c8.94-9.81,11.07-12.14,20.2-7.44,3.14,1.62,4.86,6,5,12.63.29,18.51-12.61,53.2-30.05,68.57H90C107.23,579.32,119.86,545.09,119.57,526.69Z" transform="translate(0 0)" style="fill: #1b75bc"/>
    <path d="M285.49,467.23c12.81,18.73,24.91,36.43,41.93,36.43,20.57,0,40.83-23.81,64.29-51.37,15.79-18.55,32.11-37.73,50-51.19,12-9,25.77-13.38,42.16-13.38,18,0,35.21,5.3,49,9.56,8.81,2.72,15.77,4.86,20.55,4.86h0a7.91,7.91,0,0,0,5.29-1.56,6.48,6.48,0,0,0,2-5.22c0-11.07-12.8-21.46-29-34.61-12.25-9.94-26.13-21.2-37.8-35.31-14.52-17.57-20.21-35.5-24.36-48.58-3.71-11.71-6.16-19.44-12.73-20.3a5.72,5.72,0,0,0-.74,0c-4.83,0-9.25,5.82-15.36,13.87-10.38,13.67-24.6,32.39-48.74,32.4h0a49.88,49.88,0,0,1-6.57-.45,12.71,12.71,0,0,0-1.68-.12c-8.07,0-9.63,8.1-11.78,19.31-3.26,17-8.19,42.68-38.9,62.4-18.72,12-44.5,17.62-81.15,17.62-12.44,0-24.53-.62-35.19-1.17-8.85-.46-16.5-.85-23-.85-11,0-16.91,1.17-19.7,3.92-3.84,3.77-3.62,7-2.77,9.13,3.93,9.61,30.9,15.81,68.71,15.81C258.94,428.39,272.44,448.14,285.49,467.23ZM174,411.45c-.27-.67-1.11-2.71,2.1-5.86,2.79-2.75,11.38-3.06,17.6-3.06,6.47,0,14.08.39,22.89.85,10.7.55,22.83,1.18,35.35,1.18,37.25,0,63.55-5.75,82.77-18.09C366.52,366,371.6,339.6,375,322.1c2.35-12.26,3.68-17.64,10.12-16.79a52.72,52.72,0,0,0,7,.47h0c25.63,0,40.37-19.41,51.13-33.58,5.17-6.81,9.63-12.68,13-12.68l.36,0c4.67.61,7,8,10.26,18.23,4.23,13.32,10,31.57,24.91,49.59,11.85,14.34,25.86,25.7,38.22,35.72,15.59,12.65,27.91,22.64,27.91,32.28a3.64,3.64,0,0,1-1,2.93,5.23,5.23,0,0,1-3.35.85h0c-4.33,0-11.44-2.19-19.67-4.73-14-4.32-31.44-9.69-49.91-9.69-17.07,0-31.45,4.57-44,14-18.16,13.65-34.6,33-50.49,51.64-22,25.88-42.82,50.32-62,50.32-15.44,0-27.11-17.06-39.46-35.12-13.5-19.74-27.45-40.14-48-40.14C198.58,425.39,176.77,418.16,174,411.45Z" transform="translate(0 0)" style="fill: #1b75bc"/>
    <path d="M50.86,420.27c19-3.55,34.25-16.79,47.73-28.47,9.73-8.43,18.92-16.38,28-19.35,11.94-3.91,31-2.54,51.26-1.09,17,1.22,34.54,2.48,50.95,1.11,18.91-1.58,31.38-6.76,31.77-13.21.31-5.12-6.8-9.57-19.5-12.2-16.71-3.46-28.65-10.28-40.2-16.87-8.69-5-17.67-10.09-28.5-13.62-9.56-3.11-24.83.55-42.51,4.79C101,328.29,68.3,336.14,50.12,316.7c-20.39-21.79-40-31-50.12-34.65v1.05c10.09,3.66,29.33,12.85,49.39,34.28C68,337.24,101,329.32,130.11,322.34c16.8-4,32.67-7.84,42-4.81,10.72,3.49,19.66,8.59,28.31,13.53,11.61,6.63,23.62,13.49,40.49,17,12,2.48,19,6.66,18.71,11.16-.29,4.85-9.95,10.53-30.85,12.27-16.33,1.36-33.85.1-50.8-1.11-20.32-1.46-39.52-2.83-51.64,1.13-9.27,3-18.53,11.06-28.34,19.55-13.39,11.59-28.57,24.73-47.26,28.24A104.47,104.47,0,0,1,0,415.87v1a107.14,107.14,0,0,0,32.38,5A100.25,100.25,0,0,0,50.86,420.27Z" transform="translate(0 0)" style="fill: #1b75bc"/>
    <path d="M56.06,389.75c11.82-3.16,21-9.3,29.84-15.24,14-9.42,28.57-19.15,54.14-17.29,24.69,1.8,39.14-.51,42.94-6.87,1.77-3,1.23-6.73-1.6-11.19-4.65-7.3-28.86-4.16-56.9-.52-16.27,2.11-33.09,4.3-47.37,4.59C48,343.84,14.28,329.76,0,323.08v1.1c14.28,6.65,46.67,20.06,75.31,20.06l1.83,0c14.34-.29,31.18-2.48,47.48-4.59,26.55-3.45,51.62-6.7,55.93.06,2.61,4.11,3.15,7.52,1.58,10.14-3.59,6-17.72,8.16-42,6.39-25.91-1.88-40.58,7.95-54.77,17.46-8.79,5.9-17.89,12-29.54,15.11C34.22,394.55,11.27,392,0,390.17v1a162.8,162.8,0,0,0,26.13,2.18A117,117,0,0,0,56.06,389.75Z" transform="translate(0 0)" style="fill: #1b75bc"/>
    <path d="M59.91,372a3.63,3.63,0,0,0,.55-3.78c-1.92-5-13.08-10.44-24.86-12.21C18.75,353.46,6.86,349.42,0,346.58v1.08A155.11,155.11,0,0,0,35.44,357c11.28,1.7,22.31,7,24.08,11.59a2.61,2.61,0,0,1-.39,2.79c-2,2.51-11.89,7.33-59.13.22v1c18.09,2.72,30.82,3.71,39.76,3.71C53.49,376.3,58.3,374,59.91,372Z" transform="translate(0 0)" style="fill: #1b75bc"/>
    <path d="M330.83,479.91h0c10.54,0,21.16-7.13,31.58-21.18,6.48-8.75,16.18-18.5,26.45-28.82,22.11-22.22,45-45.2,40.76-62.92s-21.4-30.76-34-30.76c-5.5,0-9.35,2.61-10.84,7.35-18.19,58-50.57,68.73-76.75,71.64-12,1.34-18.39,4.15-20.69,9.13-2.94,6.38.76,16,13.21,34.36C310.11,472.77,320.29,479.9,330.83,479.91Zm-42.57-55.14c2.1-4.57,8.43-7.29,19.89-8.56,17.35-1.93,30.85-7,42.46-16,15.49-12,27-30.4,35.14-56.37,1.73-5.5,6.33-6.65,9.89-6.65,10.8,0,28.59,11.41,33,30,4.09,17.17-18.58,40-40.5,62-10.3,10.35-20,20.12-26.55,28.93-10.21,13.79-20.57,20.78-30.77,20.78h0c-10.19,0-20.09-7-29.44-20.76C289.33,440.37,285.53,430.7,288.26,424.76Z" transform="translate(0 0)" style="fill: #1b75bc"/>
    <path d="M496.27,370.25h0c12,0,14.65-4.45,14.72-8.18.18-10.26-6.39-13.91-14.71-18.53-7.5-4.17-16.83-9.35-25.35-21.26-4.66-6.51-7.62-11.4-9.78-15-3.54-5.83-5.15-8.5-8.61-8.5-2.17,0-4.63,1.13-9.1,3.18l-3.23,1.47c-3.09,1.39-6.11,2.47-9,3.52-7.12,2.55-13.28,4.75-15.39,10.12-1.71,4.35-.5,10.27,3.82,18.61C429.12,354.11,474.11,370.24,496.27,370.25Zm-77.68-52c1.61-4.1,6.91-6,13.61-8.39,2.83-1,6-2.17,9.24-3.6l3.25-1.48c3.81-1.75,6.33-2.91,7.85-2.91,1.69,0,2.79,1.69,6,7.05,2.19,3.61,5.19,8.55,9.91,15.16,8.91,12.45,18.57,17.82,26.33,22.13,8,4.45,13.32,7.4,13.17,15.86-.08,4.55-7.37,5.23-11.72,5.23h0c-21.43,0-65.22-15.94-74-32.9C418.44,326.92,417.23,321.65,418.59,318.21Z" transform="translate(0 0)" style="fill: #1b75bc"/>
    <path d="M34.23,175.17C46.11,188.1,58.38,201.46,77,207.67c19.76,6.6,34,5.24,49,3.79,12.44-1.2,25.31-2.43,41.67,1.3,14.4,3.29,31.23,15.48,47.5,27.26,19.15,13.87,37.46,27.13,52.17,27.13a19.93,19.93,0,0,0,11.59-3.5c17.57-12.09,8-29-3.14-48.64-6-10.66-12.28-21.68-15.18-33.34-4.82-19.35-3.33-36.72-1.6-56.83,1.26-14.69,2.56-29.87,1.62-47.87-1.75-33.2-24.79-64.68-34.89-77h-1.29c9.73,11.73,33.43,43.52,35.19,77,.94,17.93-.36,33.08-1.61,47.73-1.73,20.2-3.23,37.65,1.63,57.16,2.94,11.8,9.21,22.88,15.28,33.59,10.87,19.19,20.26,35.76,3.44,47.33a19,19,0,0,1-11,3.31c-14.38,0-32.57-13.17-51.57-26.94-16.35-11.84-33.26-24.09-47.87-27.43-16.51-3.77-29.46-2.53-42-1.33-14.93,1.44-29,2.79-48.58-3.75C58.94,200.6,46.76,187.33,35,174.5c-10.12-11-20.54-22.35-35-29.55v1.13C14,153.21,24.29,164.34,34.23,175.17Z" transform="translate(0 0)" style="fill: #1b75bc"/>
    <path d="M70.69,153.56C90,184.07,111.86,184.69,135,185.36c8.59.25,17.46.5,26.38,2.34,14.47,3,29.13,12,42.07,19.95s24.55,15.08,33.7,15.08a13.8,13.8,0,0,0,7.16-1.85c8.09-4.77,4.09-13.75-2-27.35C235,177,223.86,152.05,227.23,117.78,233.1,58.09,219,27.39,193.66,0h-1.37c25.55,27.36,39.83,57.87,34,117.68-3.39,34.54,7.78,59.64,15.17,76.25,6,13.57,9.69,21.76,2.36,26.08-9.34,5.51-23.47-3.17-39.83-13.22-13-8-27.75-17-42.39-20.07-9-1.86-17.93-2.12-26.56-2.37-22.83-.66-44.39-1.28-63.46-31.34C51.11,120.81,15.19,106.65,0,101.9v1C15.22,107.74,50.56,121.82,70.69,153.56Z" transform="translate(0 0)" style="fill: #1b75bc"/>
    <path d="M76.7,104.74a197.66,197.66,0,0,1,10.66,18.78c8.54,16.54,14.18,27.47,39,31.28,13.43,2.06,25.64,6.31,36.41,10.07,11.26,3.92,20.86,7.27,29,7.27a21.44,21.44,0,0,0,9.77-2.12c11.06-5.53,8.91-19.64,5.36-43-1.8-11.87-4-26.64-5.09-43.94-2.36-39.29-30-70.84-42.41-83.06H158c11.87,11.57,40.45,43.37,42.84,83.12,1,17.34,3.29,32.14,5.1,44,3.48,22.93,5.59,36.76-4.82,42-9.47,4.74-22.05.35-38-5.19-10.81-3.77-23.07-8-36.59-10.11-24.32-3.73-29.87-14.48-38.26-30.75a198.51,198.51,0,0,0-10.71-18.87C63.62,83,17.8,74.52,0,72v1C17.77,75.53,63,83.95,76.7,104.74Z" transform="translate(0 0)" style="fill: #1b75bc"/>
    <path d="M111.37,118c7.68,13.08,26.88,23.81,45.17,23.81a39.88,39.88,0,0,0,15.89-3.12c5-2.16,8.55-6.29,10.54-12.25,5.81-17.45-3-47.39-14.79-68C155.81,36.82,134.82,11,125.56,0h-1.31c8.94,10.61,30.48,37,43,58.95,11.64,20.37,20.43,50,14.71,67.15-1.89,5.68-5.25,9.6-10,11.65-21.16,9.15-50-3.6-59.8-20.27C104,103.54,78,64.28,56.21,50.14,41,40.27,13.08,33.74,0,31.08v1C13.09,34.77,40.63,41.24,55.66,51,77.33,65,103.22,104.1,111.37,118Z" transform="translate(0 0)" style="fill: #1b75bc"/>
    <path d="M119.76,82c12.41,16.3,21.78,28.6,30.52,28.6a9.31,9.31,0,0,0,3.44-.66c1.69-.66,3.76-2.41,4-6.94.65-10.45-8.66-32.78-23.18-55.56C121.5,26.94,107.07,10.25,93.73,0H88.67c13.91,9.67,29.39,27.12,43.39,49.08s23.32,44,22.72,53.76c-.15,2.38-.87,3.83-2.14,4.33-7.65,3-17.73-10.21-30.48-27-10.52-13.82-23.62-31-39.89-45C53.75,10.64,15.74,6.81,0,6.34v3c15.37.47,52.52,4.2,80.31,28.12C96.34,51.26,109.32,68.32,119.76,82Z" transform="translate(0 0)" style="fill: #1b75bc"/>
    <path d="M426.85,99.93a1.76,1.76,0,0,0,.73-.16c3.52-1.59,1.09-15.49-3.49-39.93-3.67-19.58-8.16-43.48-8-59.85h-1c-.16,16.48,4.33,40.42,8,60,3.62,19.28,7,37.49,4.06,38.83-.56.25-2.07,0-5.84-4.88C403.58,71.21,395.08,17,392.8,0h-1c2.27,16.87,10.81,71.58,28.76,94.61C423.38,98.24,425.38,99.93,426.85,99.93Z" transform="translate(0 0)" style="fill: #1b75bc"/>
    <path d="M227.22,532.23c-6.72-38.55-.29-45.58,2.79-46.81,4.28-1.72,10.81,3.38,17.91,14,12.2,18.2,52.67,73.08,96.55,73.08a50.92,50.92,0,0,0,13-1.67c27.77-7.31,49.45-44.34,68.58-77,12.91-22.06,25.11-42.89,37.26-51.12,15-10.17,41.89-4.28,73,2.54,30.34,6.65,64.74,14.2,94.54,7.6,25.34-5.6,41.44-21.22,47.85-46.41,5.35-21.06,3-44.65,1.41-60.26l-.25-2.46c-1.49-15,11.84-20.49,28.71-27.42,17.23-7.08,36.76-15.1,47.51-35.59C779,237,781.22,186.83,762.19,143c-11.36-26.16-12.69-45-4.19-59.44,10.9-18.47,38.39-30,83.88-35.13v-1C796,52.6,768.23,64.28,757.14,83c-8.68,14.69-7.36,33.87,4.13,60.35,18.91,43.56,16.69,93.42-6.09,136.81-10.59,20.17-29.94,28.12-47,35.13-16.58,6.81-30.89,12.69-29.33,28.44l.25,2.46c1.56,15.54,3.93,39-1.38,59.92-6.3,24.8-22.15,40.17-47.09,45.68-29.59,6.54-63.87-1-94.11-7.6-31.33-6.87-58.39-12.8-73.77-2.39-12.34,8.35-24.59,29.28-37.56,51.44-19,32.5-40.59,69.34-68,76.54-48,12.63-95.15-51.14-108.46-71-7.5-11.19-14.29-16.28-19.11-14.34-7.08,2.84-8.29,19.86-3.4,47.91,6.31,36.2,6.3,54.87,5.71,62.88h1C233.6,587.19,233.57,568.64,227.22,532.23Z" transform="translate(0 0)" style="fill: #1b75bc"/>
    <path d="M650.54,38.8c14.27,7.47,24.78,15.2,33.23,21.41,11.64,8.56,19.94,14.66,30,14.66A31.81,31.81,0,0,0,726.33,72c6.94-3,12.85-7.64,19.69-13.08,17.78-14.12,39.76-31.57,95.87-32.28v-1c-56.5.81-79.53,19-96.5,32.49-6.78,5.39-12.64,10-19.45,12.94C709.69,78,700.16,71,684.37,59.41c-8.48-6.23-19-14-33.36-21.49C622.59,23,615.3,7.69,613.46,0h-1.12C614,7.84,621.23,23.45,650.54,38.8Z" transform="translate(0 0)" style="fill: #1b75bc"/>
    <path d="M677.66,30.54c14.72,7.36,27,12,38.54,12,10.22,0,19.83-3.62,30-12.16,9.38-7.88,27.83-11.81,45.68-15.61S826.53,7.37,834.76,0h-5C821.14,5.45,806,8.67,791.25,11.81c-18.21,3.87-37,7.88-47,16.24-20.46,17.19-38,13.42-65.26-.19C660,18.35,657.28,6.44,657.42,0h-2.91C654.45,7.34,657.56,20.49,677.66,30.54Z" transform="translate(0 0)" style="fill: #1b75bc"/>
    <path d="M715.73,24.62c16.9,0,31.51-16.26,37.9-24.62h-1.26c-6.5,8.37-20.55,23.62-36.64,23.62S686.9,8.36,681.13,0h-1.21C685.61,8.37,698.83,24.62,715.73,24.62Z" transform="translate(0 0)" style="fill: #1b75bc"/>
    <path d="M270.09,551.32c-9.34-9.49-15.5-15.75-19.56-15.43a3.46,3.46,0,0,0-2.6,1.58c-6.52,9.25,5,44.31,9.76,57.81h1.07c-4.63-13.09-16.25-48.4-10-57.23a2.46,2.46,0,0,1,1.87-1.16c3.59-.31,10.29,6.51,18.76,15.13,13.19,13.4,32,32.46,56,43.26h2.49C303,584.75,283.6,565.05,270.09,551.32Z" transform="translate(0 0)" style="fill: #1b75bc"/>
    <path d="M744.51,508.71c-31.94-28-78.72-24-112.89-21-3.24.28-6.37.55-9.35.78-27.69,2.13-53.69-7.3-76.62-15.63-20.65-7.49-38.49-14-52.81-10.26-26.78,6.93-40.32,35.94-54.65,66.66-1.83,3.92-3.72,8-5.62,11.95-12.42,25.92-33.89,46-43.41,54.1h4.57c10.61-9.39,29.94-28.58,41.54-52.8,1.92-4,3.81-8.05,5.64-12,14-30.06,27.27-58.45,52.68-65,13.42-3.47,30.85,2.85,51,10.18,23.22,8.43,49.53,18,77.87,15.8,3-.23,6.13-.5,9.38-.78,33.62-2.89,79.67-6.84,110.65,20.29,19.74,17.29,31.06,45.64,33.67,84.31h3C776.57,555.68,764.91,526.57,744.51,508.71Z" transform="translate(0 0)" style="fill: #1b75bc"/>
    <path d="M641.83,519.46c-9.86.37-20,.75-29.44.51-26.28-.68-47.4-10-66-18.15-9.29-4.08-18.06-7.94-26.55-10.31a26.39,26.39,0,0,0-20.87,2.42c-15.87,9-25.19,33.18-30.21,51.84-6.29,23.39-24.71,41.42-34.29,49.51H436c9.88-8.52,27.54-26.33,33.71-49.25,5-18.48,14.17-42.37,29.74-51.23a25.43,25.43,0,0,1,20.1-2.32c8.42,2.36,17.16,6.2,26.42,10.26,18.73,8.23,39.95,17.55,66.42,18.23,9.43.24,19.63-.14,29.5-.51,31.94-1.2,65-2.44,81.86,16.26,17.25,19.1,20.36,47.18,20.9,58.56h1c-.54-11.49-3.68-39.89-21.16-59.23C707.27,517,674,518.25,641.83,519.46Z" transform="translate(0 0)" style="fill: #1b75bc"/>
    <path d="M686.79,544.17c-12.92-2.81-28.86-2.25-45.73-1.65-24.44.86-52.13,1.84-76.09-7.53q-4.31-1.69-8.31-3.28c-22.79-9-37.84-15-48.92-9.54-6.66,3.29-11.41,10.62-14.94,23.06-7.28,25.68-16.81,42.68-21.46,50.06h3.57c5-8.2,13.83-24.71,20.78-49.24,3.28-11.57,7.53-18.3,13.38-21.19,9.89-4.88,24.45.9,46.49,9.64q4,1.59,8.32,3.28c24.54,9.6,52.57,8.61,77.29,7.74,16.68-.59,32.44-1.14,45,1.58,24,5.21,27.58,35.94,28,48.18h3C716.69,582.46,712.84,549.83,686.79,544.17Z" transform="translate(0 0)" style="fill: #1b75bc"/>
    <path d="M622.94,568.06c-5.33,0-10.83-.08-16.74-.18-31.24-.51-49.51-9.44-61.6-15.35-9.72-4.75-15.58-7.62-21.19-2.95-9.75,8.13-13.06,34.49-14,45.7h1c1-11.13,4.35-37.17,13.67-44.93,5.11-4.26,10.75-1.5,20.11,3.08,12.17,5.95,30.56,14.94,62,15.45,5.91.1,11.42.14,16.75.18,29.37.22,48.77.37,57.52,9.71,3.58,3.82,5.4,9.14,5.61,16.51h1c-.21-7.64-2.12-13.18-5.88-17.19C672.13,568.43,652.56,568.28,622.94,568.06Z" transform="translate(0 0)" style="fill: #1b75bc"/>
    <path d="M659.48,590.18c-3.69-3-9.74-2.27-19.76-1.15-6.49.73-14.56,1.64-24.64,1.84-24.3.51-38.9-3-50.63-5.9a136.55,136.55,0,0,0-14.2-3c-4-.52-7,.34-9,2.57-2.59,2.82-3.07,7.23-3,10.69h1c-.1-3.29.34-7.46,2.69-10,1.82-2,4.57-2.73,8.18-2.25a135.7,135.7,0,0,1,14.1,2.93c11.79,2.87,26.47,6.43,50.89,5.93,10.12-.21,18.22-1.12,24.73-1.85,9.76-1.1,15.66-1.76,19,.94a8.78,8.78,0,0,1,2.71,4.32h1.06A9.9,9.9,0,0,0,659.48,590.18Z" transform="translate(0 0)" style="fill: #1b75bc"/>
    <path d="M717.11,477.22c-17.28-3-32.2-5.59-36.29-14.43-4.75-10.28,1.69-20.93,9.13-33.25,6.48-10.73,13.82-22.88,14.31-36.64a155.14,155.14,0,0,0-.92-20c-1.76-19.34-3-33.32,22-43.16l1.61-.63c32.3-12.71,57.82-22.75,67.87-87.16,5.65-36.19-.65-63.82-5.71-86-4.19-18.38-7.5-32.9-3.45-46.65,7-23.62,41.2-25.94,56.28-25.79v-1c-15.31-.14-50.1,2.27-57.24,26.5-4.12,14-.62,29.36,3.44,47.15,5,22.12,11.32,49.65,5.7,85.65-10,63.84-34,73.3-67.25,86.38l-1.61.63c-25.69,10.12-24.32,25.15-22.59,44.18a154.33,154.33,0,0,1,.92,19.89c-.47,13.5-7.75,25.54-14.16,36.16-7.59,12.57-14.15,23.43-9.18,34.19,4.3,9.32,19.46,12,37,15,21.27,3.69,45.39,7.88,60.71,24.29,23.49,25.17,30.35,76.44,32,92.78h1c-1.62-16.33-8.51-68-32.25-93.46C762.82,485.16,737.47,480.76,717.11,477.22Z" transform="translate(0 0)" style="fill: #1b75bc"/>
    <path d="M817.59,126.53c-6,4.88-9.26,12.16-9.55,21.63-.35,11.49,2.83,24.36,6.5,39.27,6.86,27.84,15.4,62.48.73,99.33-12.55,31.5-29.53,40-44.52,47.54-11.57,5.8-21.57,10.82-26.92,24.92a138.21,138.21,0,0,0-7.87,30.5c-1.69,10.52-2.91,18.13-12.06,30.89-8,11.18-10.51,20.22-7.63,27.62,3.21,8.24,13,14,29.9,17.5l1.58.33c28.3,5.88,73.77,15.35,94.14,89.77V545.6c-8.37-25.42-20.7-45-36.84-58.42-19.68-16.37-41.07-20.82-56.69-24.06l-1.58-.33c-15.62-3.26-24.94-8.53-27.72-15.65-2.45-6.29,0-14.63,7.27-24.78,9.56-13.34,10.9-21.65,12.58-32.16a135.62,135.62,0,0,1,7.71-29.91c4.94-13,14.45-17.78,25.46-23.31,14.7-7.37,33-16.55,46-49.11,15-37.74,6.36-72.9-.6-101.16-3.62-14.69-6.75-27.38-6.41-38.46.26-8.55,3.09-15.08,8.42-19.38,6.71-5.42,16.09-6.33,22.43-6.22v-3C835.1,119.49,825,120.51,817.59,126.53Z" transform="translate(0 0)" style="fill: #1b75bc"/>
    <path d="M794.59,350.56c-16.46,18.61-26.58,41.13-31.16,52.9-5.7,14.68-6.79,22.58-3.89,28.14,4.06,7.76,15.95,10.64,37.53,15.87l5.22,1.27c21.69,5.29,33.38,22.44,39.59,37.44v-2.52c-6.51-14.68-18.29-30.76-39.35-35.9l-5.22-1.27c-21.3-5.16-33-8-36.88-15.36-2.76-5.28-1.65-12.94,3.93-27.32,6.8-17.49,31.76-72.88,77.53-81.28v-1C824.83,324.59,808.94,334.33,794.59,350.56Z" transform="translate(0 0)" style="fill: #1b75bc"/>
    <path d="M799.94,385.67c-7.35,14.36-9.32,24-6.19,30.44,3.38,6.91,12.47,9.5,21.8,11.28,11.75,2.24,20.72,10.5,26.34,17.34v-1.55c-5.77-6.78-14.65-14.59-26.15-16.78-12.4-2.36-18.51-5.47-21.08-10.74-3-6.09-1-15.48,6.18-29.54,10.63-20.77,30.38-30.31,41.06-34.12v-1.06C831.14,354.74,810.83,364.39,799.94,385.67Z" transform="translate(0 0)" style="fill: #1b75bc"/>
    <path d="M820.45,401.8c-.88,9.14,12.69,15.19,21.44,18.12v-1.09c-8.49-2.9-21.24-8.67-20.44-16.94s12.43-19.62,20.44-26.58V374C833.77,380.92,821.31,393,820.45,401.8Z" transform="translate(0 0)" style="fill: #1b75bc"/>
  </g>
</svg>
