<svg xmlns="http://www.w3.org/2000/svg" viewBox="0 0 315.07 219.17">
  <title>eb</title>
  <g id="Layer_2" data-name="Layer 2">
    <g id="blobSvg">
      <g>
        <path d="M64.59,71q18.73,0,18.74,21.94,0,12.57-8.38,26.38-14.3,22.93-38,22.93A13.68,13.68,0,0,1,30.82,141a8,8,0,0,1-3.7-3.7q17.5,0,32.05-20.22Q71,100.84,71,87.28q0-10.11-8.14-10.11-16.27,0-30.32,25.39-15,27.61-15,56.7,0,24.66,14.05,29.58a20.44,20.44,0,0,0,6.9,1,21.76,21.76,0,0,0,8.88-2.1,28.94,28.94,0,0,0,7.89-5.05,57,57,0,0,0,10.6-13.07,3.74,3.74,0,0,1,3.7-2q4.44,0,4.19,1.48-.74,2.72-5.55,9.12a79.8,79.8,0,0,1-8.88,10.23,40.94,40.94,0,0,1-10.6,6.9,30.68,30.68,0,0,1-13.19,3.08q-26.14,0-33.28-24.65A67.15,67.15,0,0,1,0,156.55q0-16.51,7.64-36Q19.72,91,40.93,77.91A45.75,45.75,0,0,1,64.59,71Z" style="fill: #001689"/>
        <path d="M234.46,76.92q29.34,9.37,29.34,48.08,0,32.3-27.49,63.24t-75.56,30.94q-37.72,0-49.06-21.94a31.84,31.84,0,0,1-3.94-15.16,36.29,36.29,0,0,1,3.94-15.9q7.4-15.77,21.45-15.78a1.77,1.77,0,0,1,1.73,1.36,3.8,3.8,0,0,1-.12,2.83,2,2,0,0,1-1.85,1.48q-8.38,0-14.05,10.85a28.17,28.17,0,0,0-3.95,13.56,27.22,27.22,0,0,0,3,12.33q8.63,16.76,38.46,16.76,37.47,0,65.09-31.56,21.45-24.16,26.38-53A73.26,73.26,0,0,0,249,112.18q0-17-10.11-25.39a24,24,0,0,0-13.31-5.18A72.17,72.17,0,0,1,197,87.28q-1.73,0-1.73-3.33T197,80.62q24.9,0,43.64-23.42,13.8-17.5,14.79-34.27-.5-14.79-11.59-15.53-12.08,0-25.89,17.26T193,66.57Q181.94,91.22,172.7,117t-14.42,44.13q-5.18,18.37-5.18,21.57t-3.45,3.21q-7.4,0-7.4-19.72A396.38,396.38,0,0,1,153,73.72q10.72-44.87,23.79-59.91-35.26,4.93-57.2,24.9Q107,49.8,107,62.87q0,6.41,4.93,6.41-1,3.46-5.42,3.45a10.45,10.45,0,0,1-7.77-3.45q-3.33-3.45-3.33-9.62,0-14.54,17.63-27a128.9,128.9,0,0,1,38.09-18.49q20.46-6,34.76-6,3.94,0,3.95,3.94-16,37.23-29.09,108.72h2Q177,76.19,196.49,40.93q10.35-19,22.93-30T245.06,0q20.71,0,24.65,16.77a35.29,35.29,0,0,1,.74,7.4q0,13.31-10.23,28.48A79,79,0,0,1,234.46,76.92Z" style="fill: #001689"/>
        <path d="M303,192.3q-5.18,0-5.18-9.62A29.06,29.06,0,0,1,301,170.11q3.2-6.66,9.12-6.66,4.93,0,4.93,5.67t-9.12,19Z" style="fill: #001689"/>
      </g>
    </g>
  </g>
</svg>
