<svg xmlns="http://www.w3.org/2000/svg" viewBox="0 0 620 550.6">
  <title>header_image</title>
  <g id="Layer_2" data-name="Layer 2">
    <g id="f1248760-b706-401a-9a88-490bc0db237b">
      <g>
        <path d="M620,504.1c0,25.7-138.8,46.5-310,46.5S0,529.8,0,504.1c0-18.2,69.6-33.9,171-41.6,41.8-3.2,89-4.9,139-4.9,20.5,0,40.6.3,60,.9C512.5,462.7,620,481.5,620,504.1Z" style="fill: #3f3d56"/>
        <ellipse cx="270" cy="499.1" rx="119" ry="14.5" style="opacity: 0.10000000149011612;isolation: isolate"/>
        <ellipse cx="269.5" cy="389.6" rx="112.5" ry="120" style="fill: #3f3d56"/>
        <rect x="235" y="460.6" width="70" height="64" style="fill: #ff495c"/>
        <polygon points="420.9 476.1 416.9 498.1 442.9 502.1 459.9 492.1 458.9 476.1 420.9 476.1" style="fill: #575a89"/>
        <path d="M265.5,63.1s-2,23-7,24,11,41,11,41h24l19-5-9-22s-12-16-3-29S265.5,63.1,265.5,63.1Z" style="fill: #a0616a"/>
        <path d="M265.5,63.1s-2,23-7,24,11,41,11,41h24l19-5-9-22s-12-16-3-29S265.5,63.1,265.5,63.1Z" style="opacity: 0.10000000149011612;isolation: isolate"/>
        <path d="M215.5,239.1s-26,50-5,60,26,9,26,12-4,2-2,7-4,25,2,37,4,21,4,21,0,1,2,5,3,7,2,9-7,15-1,18,37,5,40,0-3-8,0-11,5-4,3-6-4-27-4-27,5-29,3-33-5-8-3-11,4-2,5-6,3-13,3-13l11-1,26,5s29,32,61,42c0,0,9,9,12,9s3,0,2,2-4,2-2,4,5-1,3,2-4,3-2,5-1,13-1,14-9,95-6,97,45,8,48,0-2-18-2-18,15-120,11-128-18-44-93-67c0,0-21-4-21-7s-2-22-6-23-27-2-27-2l-29,9-40-7Z" style="fill: #2f2e41"/>
        <path d="M250.5,407.1l-5,18s-4,29,1,36c3.9,5.5,10.9,12.2,23.9,13.4a16.06,16.06,0,0,0,16.8-11.1c.1-.4.2-.9.3-1.3,0-2-3-26-3-26l-5-25-1-7Z" style="fill: #2f2e41"/>
        <path d="M420.9,493.1s-5-5-6,0-5,26,2,27,74,11,81,7,20-10,12-13-31-12-31-12-13-17-15-18-13,1-18,5S420.9,493.1,420.9,493.1Z" style="fill: #2f2e41"/>
        <circle cx="289.5" cy="53.1" r="31" style="fill: #a0616a"/>
        <path d="M286.5,123.1l-12-13-13.3-26s-9.7-3-11.7,2-38,21-38,21,9,84,5,92-11,40-5,43,34,0,43,4,35,4,42-1,9-9,16-6c6,2.6,19.9-84.8,23.9-110.8a11.77,11.77,0,0,0-4.9-11.5c-9-6.3-25.1-17.1-28-15.7C299.5,103.1,286.5,123.1,286.5,123.1Z" style="fill: #575a89"/>
        <path d="M329.5,119.1h0a11.83,11.83,0,0,1,8.9,10.2l8.1,72.8s-20,43-30,14S329.5,119.1,329.5,119.1Z" style="fill: #575a89"/>
        <path d="M327.5,209.1l22-6s4,28,8,28-14,16-23,14-22-9-23-14,9-26,9-26Z" style="fill: #575a89"/>
        <path d="M266.1,66.5c2.1-4.6,1.7-10.1,3.5-14.9A17.65,17.65,0,0,1,292.3,41a16.84,16.84,0,0,1,4.2,2.2c2.2,1.6,4.5,3.8,7.2,3.5,2.9-.3,5.6-3.6,8.3-2.4,3,1.3,2.2,6.7,5.2,8,1.6.7,3.5-.4,4.4-1.8a12,12,0,0,0,1.3-5c.4-4.3.8-8.8-1.1-12.6a22.19,22.19,0,0,1-2-4.1,13.61,13.61,0,0,1-.4-4c0-5-.4-10.2-2.9-14.6-2.8-4.8-8-7.9-13.4-9.2S292-.1,286.5.3c-9.2.8-18.7,2.4-25.9,8.1a10.3,10.3,0,0,0-2.5,2.6,13.16,13.16,0,0,0-1.3,3.8,79.52,79.52,0,0,1-7,18.3,39.25,39.25,0,0,0-3.6,7.8,10,10,0,0,0,.9,8.3c1.3,1.9,3.4,3,5,4.5s2.4,4.6,4.2,5.7c1.6,1,3.5.3,5.1,1.4C263.5,62.3,263.7,65.4,266.1,66.5Z" style="fill: #2f2e41"/>
        <path d="M291.5,138.1l3-6s44,13,53,25c0,0,22-14,34-12l12,2-37,33-47-4Z" style="fill: #f2f2f2"/>
        <path d="M289.5,132.1l-41,57,59,29s5.5,3,9.8,0l39.2-18,37-53-37,19s-4-8-12-4Z" style="fill: #ff495c"/>
        <path d="M352.5,233.1l8-21s18-23,8-34-21,32-21,32Z" style="fill: #a0616a"/>
        <path d="M260.2,229.8l17.5-14.2s27.1-10.9,24-25.4-34.3,17.2-34.3,17.2Z" style="fill: #a0616a"/>
        <path d="M217,128.6h-1s-15.5-18.5-18.5,6.5-13,108,13,111S255,233.6,255,233.6s19-29,12-29c-3.4,0-12.6-1.5-21-1-9,.6-17,3.1-16.5.5C230.5,199.1,245,135.6,217,128.6Z" style="opacity: 0.10000000149011612;isolation: isolate"/>
        <path d="M215.5,109.1l-4-2s-16,3-19,28-13,108,13,111,61-4,61-4,7-38,0-38-43,5-42,0S243.5,116.1,215.5,109.1Z" style="fill: #575a89"/>
        <polygon points="338 221.6 349 204.7 356 232.6 338 240.6 338 221.6" style="fill: #575a89"/>
      </g>
    </g>
  </g>
</svg>
