<svg id="blobSvg" xmlns="http://www.w3.org/2000/svg" viewBox="0 0 389.38 341.47">
  <title>logo</title>
  <path id="blob" d="M941.69,317.23q-45,75.5-145.5,99t-123-75.5q-22.5-99,7-185.5t122.5-74.5q93,12,138.5,86.5T941.69,317.23Z" transform="translate(-663.46 -79.26)" style="fill: #ff495c"/>
  <g>
    <path d="M802.36,211.42q18.73,0,18.74,21.94,0,12.57-8.38,26.38-14.3,22.93-38,22.93a13.68,13.68,0,0,1-6.16-1.23,8,8,0,0,1-3.7-3.7q17.5,0,32.05-20.22,11.83-16.27,11.83-29.83,0-10.11-8.14-10.11-16.27,0-30.32,25.39-15,27.61-15,56.7,0,24.66,14.05,29.58a20.44,20.44,0,0,0,6.9,1,21.76,21.76,0,0,0,8.88-2.1A28.94,28.94,0,0,0,793,323.1,57,57,0,0,0,803.59,310a3.74,3.74,0,0,1,3.7-2q4.44,0,4.19,1.48-.74,2.72-5.55,9.12a79.8,79.8,0,0,1-8.88,10.23,40.94,40.94,0,0,1-10.6,6.9,30.68,30.68,0,0,1-13.19,3.08q-26.14,0-33.28-24.65A67.15,67.15,0,0,1,737.76,297q0-16.51,7.64-36,12.08-29.58,33.28-42.65A45.75,45.75,0,0,1,802.36,211.42Z" transform="translate(-663.46 -79.26)" style="fill: #001689"/>
    <path d="M972.22,217.33q29.34,9.37,29.34,48.08,0,32.3-27.49,63.24t-75.56,30.94q-37.72,0-49.06-21.94a31.84,31.84,0,0,1-3.94-15.16,36.29,36.29,0,0,1,3.94-15.9q7.4-15.77,21.45-15.78a1.77,1.77,0,0,1,1.73,1.36,3.8,3.8,0,0,1-.12,2.83,2,2,0,0,1-1.85,1.48q-8.38,0-14.05,10.85a28.17,28.17,0,0,0-3.95,13.56,27.22,27.22,0,0,0,3,12.33Q864.23,350,894.07,350q37.47,0,65.09-31.56,21.45-24.16,26.38-53a73.26,73.26,0,0,0,1.23-12.82q0-17-10.11-25.39A24,24,0,0,0,963.35,222a72.17,72.17,0,0,1-28.6,5.67q-1.73,0-1.73-3.33t1.73-3.33q24.9,0,43.64-23.42,13.8-17.5,14.79-34.27-.5-14.79-11.59-15.53-12.08,0-25.89,17.26T930.8,207q-11.09,24.66-20.34,50.42T896,301.53q-5.18,18.37-5.18,21.57t-3.45,3.21q-7.4,0-7.4-19.72a396.38,396.38,0,0,1,10.72-92.45q10.72-44.87,23.79-59.91-35.26,4.93-57.2,24.9-12.57,11.09-12.57,24.16,0,6.41,4.93,6.41-1,3.46-5.42,3.45a10.45,10.45,0,0,1-7.77-3.45q-3.33-3.45-3.33-9.62,0-14.54,17.63-27a128.9,128.9,0,0,1,38.09-18.49q20.46-6,34.76-6,3.94,0,3.95,3.94-16,37.23-29.09,108.72h2q14.3-44.62,33.78-79.88,10.35-19,22.93-30t25.64-11q20.71,0,24.65,16.77a35.29,35.29,0,0,1,.74,7.4q0,13.31-10.23,28.48A79,79,0,0,1,972.22,217.33Z" transform="translate(-663.46 -79.26)" style="fill: #001689"/>
    <path d="M1040.76,332.71q-5.18,0-5.18-9.62a29.06,29.06,0,0,1,3.21-12.57q3.2-6.66,9.12-6.66,4.93,0,4.93,5.67t-9.12,19Z" transform="translate(-663.46 -79.26)" style="fill: #001689"/>
  </g>
</svg>
